<svg version="1.1" xmlns="http://www.w3.org/2000/svg" x="0" y="0" viewBox="0 0 512 512" xml:space="preserve"><g fill="#bdc3c7"><path d="M255.979 34.133a8.533 8.533 0 0 0-8.533 8.533v42.667a8.533 8.533 0 0 0 17.066 0V42.667a8.533 8.533 0 0 0-8.533-8.534zM255.979 418.133a8.533 8.533 0 0 0-8.533 8.533v42.667a8.533 8.533 0 0 0 17.066 0v-42.667a8.533 8.533 0 0 0-8.533-8.533zM78.606 138.897a8.534 8.534 0 0 0-9.455 14.208l34.219 22.784a8.534 8.534 0 0 0 9.455-14.208l-34.219-22.784zM403.871 177.323a8.525 8.525 0 0 0 4.727-1.434l34.219-22.784a8.538 8.538 0 0 0-9.472-14.208l-34.21 22.784a8.533 8.533 0 0 0 4.736 15.642zM103.369 336.111L69.15 358.895a8.534 8.534 0 0 0 9.455 14.208l34.219-22.784a8.534 8.534 0 0 0-9.455-14.208zM408.598 336.111a8.537 8.537 0 0 0-9.464 14.208l34.21 22.784a8.538 8.538 0 1 0 9.472-14.208l-34.218-22.784zM222.128 128.956l-60.237 34.475a8.532 8.532 0 1 0 8.474 14.814l60.237-34.475a8.534 8.534 0 1 0-8.474-14.814zM230.601 368.23l-60.237-34.475a8.534 8.534 0 1 0-8.474 14.814l60.237 34.475a8.534 8.534 0 1 0 8.474-14.814zM375.446 213.333a8.533 8.533 0 0 0-8.533 8.533v68.267a8.533 8.533 0 0 0 17.066 0v-68.267a8.533 8.533 0 0 0-8.533-8.533zM350.068 163.43l-60.237-34.475a8.534 8.534 0 1 0-8.474 14.814l60.237 34.475a8.534 8.534 0 1 0 8.474-14.814zM341.594 333.756l-60.237 34.475a8.532 8.532 0 1 0 8.474 14.814l60.237-34.475a8.532 8.532 0 1 0-8.474-14.814zM136.513 213.333a8.533 8.533 0 0 0-8.533 8.533v68.267a8.533 8.533 0 0 0 17.066 0v-68.267a8.533 8.533 0 0 0-8.533-8.533z"/></g><circle cx="255.979" cy="119.467" r="34.133" fill="#26b99a"/><path d="M247.446 119.364a8.534 8.534 0 0 1-6.059-14.592 8.568 8.568 0 0 1 12.117 12.117 9.002 9.002 0 0 1-6.058 2.475z" fill="#65ddb9"/><circle cx="136.513" cy="187.733" r="34.133" fill="#f0c419"/><path d="M127.979 187.836a8.448 8.448 0 1 1 6.059-2.475 8.977 8.977 0 0 1-6.059 2.475z" fill="#f9eab0"/><circle cx="375.446" cy="187.733" r="34.133" fill="#f0c419"/><path d="M366.913 187.733a8.448 8.448 0 1 1 6.059-2.475 8.974 8.974 0 0 1-6.059 2.475z" fill="#f9eab0"/><circle cx="375.446" cy="324.267" r="34.133" fill="#26b99a"/><path d="M366.913 324.164a8.534 8.534 0 0 1-6.059-14.592 8.568 8.568 0 0 1 12.117 12.117 9.004 9.004 0 0 1-6.058 2.475z" fill="#65ddb9"/><circle cx="255.979" cy="392.533" r="34.133" fill="#f0c419"/><path d="M247.446 392.533a8.448 8.448 0 1 1 6.059-2.475 8.972 8.972 0 0 1-6.059 2.475z" fill="#f9eab0"/><circle cx="136.513" cy="324.267" r="34.133" fill="#26b99a"/><path d="M127.979 324.164a8.534 8.534 0 0 1-6.059-14.592 8.568 8.568 0 1 1 12.117 12.117 9 9 0 0 1-6.058 2.475z" fill="#65ddb9"/><path d="M281.579 25.6c-.063 12.14-8.645 22.566-20.546 24.963-11.901 2.397-23.849-3.895-28.606-15.064a23.893 23.893 0 0 1-2.048-9.899c0-14.138 11.462-25.6 25.6-25.6 14.139 0 25.6 11.462 25.6 25.6z" fill="#f0c419"/><g fill="#26b99a"><path d="M281.579 486.4c0 14.138-11.461 25.6-25.6 25.6-14.138 0-25.6-11.461-25.6-25.6a24.196 24.196 0 0 1 2.048-9.899c4.758-11.169 16.705-17.461 28.606-15.064 11.902 2.397 20.483 12.823 20.546 24.963zM79.339 153.003c-9.094 10.819-25.234 12.222-36.058 3.134s-12.236-25.227-3.154-36.056 25.221-12.249 36.054-3.174c10.762 9.136 12.17 25.23 3.158 36.096zM477.761 138.752a25.686 25.686 0 0 1-9.045 17.408 25.39 25.39 0 0 1-16.469 5.973 20.047 20.047 0 0 1-2.219-.085 25.599 25.599 0 0 1-23.296-27.733 26.465 26.465 0 0 1 1.792-7.339c4.751-11.737 17.369-18.237 29.684-15.292 12.315 2.945 20.626 14.451 19.553 27.068z"/></g><g fill="#f0c419"><path d="M76.182 395.093c-10.834 9.076-26.973 7.655-36.054-3.174-9.082-10.829-7.67-26.969 3.154-36.056 10.824-9.088 26.964-7.685 36.058 3.134a25.603 25.603 0 0 1-3.158 36.096zM477.761 373.248a25.597 25.597 0 0 1-23.296 27.733c-.737.069-1.478.098-2.219.085a25.398 25.398 0 0 1-16.469-5.973 39.267 39.267 0 0 1-7.253-10.069l-1.792-7.339a25.597 25.597 0 0 1 23.296-27.733 20.038 20.038 0 0 1 2.219-.085c13.282-.006 24.363 10.148 25.514 23.381z"/></g></svg>