<?xml version="1.0" encoding="UTF-8"?><svg enable-background="new 0 0 410.924 410.924" version="1.1" viewBox="0 0 410.92 410.92" xml:space="preserve" xmlns="http://www.w3.org/2000/svg"><path d="m259.43 133.41c-1.658-12.364-3.75-24.195-6.249-35.334-13.061 7.926-27.076 18.21-41.311 30.352 1.155 0.856 2.31 1.729 3.465 2.602 15.061 0.245 29.833 1.042 44.095 2.38z" fill="none"/><path d="m309.79 140.8c0.018-0.041 0.036-0.082 0.054-0.122 11.86-27.479 13.653-48.64 4.798-56.604-2.977-2.678-7.306-4.035-12.866-4.035-9.345 0-21.015 3.551-34.104 10.03 3.339 14.056 6.04 29.204 8.047 45.138 11.83 1.49 23.23 3.362 34.071 5.593z" fill="none"/><path d="m279.76 189.19c0.553 0.595 1.114 1.188 1.661 1.783 8.246-12.046 15.421-23.93 21.323-35.351-8.111-1.584-16.536-2.966-25.228-4.132 1.148 12.238 1.897 24.852 2.244 37.7z" fill="none"/><path d="m189.22 131.17c0.584-0.543 1.169-1.095 1.754-1.632-12.155-8.325-24.064-15.522-35.346-21.381-1.586 8.12-2.97 16.556-4.137 25.258 12.247-1.15 24.871-1.898 37.729-2.245z" fill="none"/><path d="m147.69 174.77c3.378-3.996 6.839-7.976 10.392-11.926 4.648-5.168 9.348-10.169 14.075-15.014-7.648 0.441-15.182 1.026-22.557 1.766-0.825 8.214-1.457 16.625-1.91 25.174z" fill="none"/><path d="m263.97 214.66c0.047-3.056 0.08-6.12 0.08-9.2 0-4.722-0.058-9.417-0.169-14.079-7.718-7.97-15.911-15.879-24.516-23.619-8.171-7.349-16.456-14.299-24.739-20.812-3.044-0.047-6.096-0.08-9.165-0.08-4.71 0-9.392 0.058-14.042 0.168-7.969 7.7-15.898 15.891-23.656 24.516-7.335 8.155-14.287 16.422-20.811 24.704-0.047 3.056-0.08 6.121-0.08 9.202 0 4.723 0.058 9.419 0.169 14.082 7.717 7.969 15.909 15.876 24.513 23.615 8.171 7.349 16.457 14.3 24.74 20.813 3.045 0.047 6.098 0.08 9.167 0.08 4.709 0 9.392-0.058 14.041-0.168 7.969-7.7 15.898-15.89 23.655-24.515 7.336-8.157 14.289-16.425 20.813-24.707zm-58.509 18.747c-15.434 0-27.947-12.512-27.947-27.947s12.513-27.947 27.947-27.947 27.947 12.512 27.947 27.947c-1e-3 15.435-12.513 27.947-27.947 27.947z" fill="none"/><path d="m15.931 205.46c0 13.68 19.598 28.451 52.424 39.513 8.29 2.793 17.21 5.3 26.653 7.508 6.856-13.688 15.49-28.024 25.578-42.527-14.401-16.634-26.534-33.25-35.67-48.982-5.754 1.542-11.289 3.198-16.561 4.975-32.826 11.062-52.424 25.833-52.424 39.513z" fill="none"/><path d="m326.01 249.95c5.754-1.542 11.29-3.198 16.563-4.975 32.826-11.062 52.424-25.833 52.424-39.513s-19.598-28.451-52.424-39.513c-8.29-2.793-17.211-5.301-26.654-7.509-6.856 13.688-15.49 28.024-25.579 42.528 14.401 16.634 26.534 33.249 35.67 48.982z" fill="none"/><path d="m205.46 15.931c-13.68 0-28.451 19.598-39.513 52.424-2.794 8.292-5.302 17.215-7.51 26.661 2.866 1.438 5.77 2.949 8.722 4.558 11.06 6.028 22.408 13.102 33.819 21.037 16.835-14.563 33.482-26.663 48.978-35.66-1.544-5.766-3.204-11.313-4.984-16.596-11.062-32.826-25.833-52.424-39.512-52.424z" fill="none"/><path d="m205.46 394.99c13.68 0 28.451-19.598 39.513-52.424 2.794-8.292 5.302-17.215 7.51-26.66-2.867-1.438-5.771-2.949-8.724-4.559-11.059-6.028-22.407-13.102-33.818-21.037-16.835 14.563-33.482 26.662-48.978 35.659 1.544 5.767 3.204 11.313 4.984 16.596 11.063 32.827 25.834 52.425 39.513 52.425z" fill="none"/><path d="m236.15 147.69c4 3.38 7.981 6.841 11.93 10.393 5.15 4.633 10.154 9.33 15.013 14.065-0.441-7.645-1.025-15.176-1.765-22.548-8.217-0.824-16.628-1.457-25.178-1.91z" fill="none"/><path d="m140.81 101.08c-15.464-6.702-29.244-10.378-40.173-10.378-7.661 0-13.234 1.878-16.566 5.583-7.042 7.831-4.709 25.045 6.084 46.95 14.031-3.33 29.149-6.023 45.05-8.026 1.493-11.852 3.368-23.27 5.605-34.129z" fill="none"/><path d="m101.13 270.13c-0.018 0.041-0.036 0.082-0.054 0.122-11.86 27.479-13.654 48.639-4.799 56.604 2.977 2.678 7.306 4.035 12.867 4.035 9.344 0 21.015-3.551 34.104-10.03-3.339-14.056-6.04-29.204-8.047-45.138-11.83-1.49-23.231-3.362-34.071-5.593z" fill="none"/><path d="m312.79 253.2c-8.045-13.331-18.296-27.3-30.273-41.347-0.865 1.166-1.746 2.333-2.628 3.5-0.246 15.058-1.043 29.826-2.381 44.084 12.345-1.655 24.158-3.743 35.282-6.237z" fill="none"/><path d="m263.24 236.15c-3.379 3.996-6.839 7.977-10.393 11.928-4.648 5.167-9.348 10.169-14.075 15.014 7.648-0.441 15.182-1.026 22.558-1.766 0.824-8.215 1.457-16.626 1.91-25.176z" fill="none"/><path d="m221.7 279.76c-0.585 0.543-1.169 1.095-1.754 1.632 12.156 8.325 24.065 15.522 35.347 21.382 1.587-8.12 2.971-16.556 4.138-25.258-12.246 1.149-24.871 1.897-37.731 2.244z" fill="none"/><path d="m174.77 263.24c-4-3.381-7.981-6.842-11.93-10.393-5.15-4.632-10.153-9.329-15.011-14.063 0.441 7.644 1.025 15.175 1.765 22.546 8.215 0.824 16.628 1.457 25.176 1.91z" fill="none"/><path d="m131.03 195.57c0.246-15.057 1.043-29.825 2.381-44.082-12.346 1.655-24.16 3.744-35.285 6.238 8.044 13.331 18.295 27.3 30.273 41.347 0.866-1.167 1.748-2.335 2.631-3.503z" fill="none"/><path d="m270.12 309.85c15.464 6.702 29.243 10.377 40.171 10.377 7.661 0 13.234-1.878 16.565-5.583 7.043-7.83 4.709-25.044-6.083-46.95-14.03 3.329-29.147 6.022-45.048 8.026-1.492 11.853-3.368 23.272-5.605 34.13z" fill="none"/><path d="m151.49 277.51c1.658 12.364 3.75 24.195 6.249 35.334 13.061-7.926 27.076-18.21 41.31-30.352-1.155-0.856-2.31-1.729-3.465-2.602-15.061-0.245-29.833-1.042-44.094-2.38z" fill="none"/><path d="m131.17 221.74c-0.554-0.596-1.116-1.19-1.664-1.786-8.246 12.046-15.42 23.93-21.322 35.351 8.111 1.584 16.537 2.966 25.229 4.132-1.148-12.237-1.896-24.849-2.243-37.697z" fill="none"/><circle cx="205.46" cy="205.46" r="27.947" fill="#1B2327"/><path d="m146.95 196.26c-3.365 4.272-6.624 8.548-9.748 12.816 3.177 3.496 6.466 6.987 9.836 10.467-0.111-4.663-0.169-9.358-0.169-14.082 1e-3 -3.08 0.033-6.145 0.081-9.201z" fill="#D09220"/><path d="m214.63 146.95c-4.263-3.352-8.526-6.594-12.772-9.701-3.479 3.16-6.96 6.433-10.435 9.79 4.65-0.111 9.333-0.168 14.042-0.168 3.069 0 6.121 0.032 9.165 0.079z" fill="#D09220"/><path d="m263.97 214.66c3.365-4.271 6.623-8.547 9.746-12.813-3.177-3.495-6.465-6.985-9.834-10.465 0.111 4.662 0.169 9.357 0.169 14.079-1e-3 3.079-0.033 6.143-0.081 9.199z" fill="#D09220"/><path d="m215.34 131.03c6.966 5.266 13.918 10.829 20.812 16.655 8.55 0.453 16.962 1.086 25.178 1.91 0.74 7.372 1.324 14.903 1.765 22.548 5.783 5.637 11.346 11.33 16.663 17.046-0.347-12.848-1.096-25.462-2.243-37.7 8.691 1.166 17.117 2.547 25.228 4.132 2.605-5.041 4.962-9.992 7.053-14.826-10.841-2.231-22.241-4.103-34.071-5.593-2.008-15.934-4.708-31.082-8.047-45.138-4.664 2.308-9.507 4.989-14.49 8.013 2.499 11.14 4.591 22.97 6.249 35.334-14.264-1.338-29.036-2.135-44.097-2.381z" fill="#D09220"/><path d="m312.79 253.2c-11.124 2.494-22.938 4.582-35.282 6.237 1.337-14.258 2.135-29.027 2.381-44.084-5.257 6.952-10.821 13.902-16.655 20.803-0.453 8.549-1.086 16.96-1.91 25.176-7.375 0.74-14.91 1.324-22.558 1.766-5.661 5.802-11.361 11.362-17.067 16.662 12.858-0.347 25.483-1.095 37.73-2.244-1.167 8.703-2.551 17.138-4.138 25.258 5.079 2.638 10.03 5.004 14.82 7.08 2.236-10.858 4.112-22.277 5.605-34.129 15.9-2.003 31.018-4.697 45.048-8.026-1.413-2.868-2.964-5.813-4.666-8.831-1.056-1.875-2.16-3.764-3.308-5.668z" fill="#D09220"/><path d="m131.03 195.57c5.257-6.951 10.82-13.901 16.654-20.802 0.453-8.549 1.086-16.96 1.91-25.175 7.375-0.74 14.909-1.324 22.557-1.766 5.661-5.802 11.361-11.362 17.067-16.662-12.858 0.347-25.483 1.095-37.729 2.244 1.167-8.702 2.551-17.138 4.137-25.258-5.079-2.638-10.03-5.004-14.82-7.081-2.236 10.859-4.112 22.277-5.605 34.129-15.901 2.003-31.02 4.697-45.05 8.026 1.413 2.868 2.964 5.813 4.666 8.831 1.057 1.875 2.161 3.766 3.309 5.668 11.125-2.494 22.939-4.583 35.285-6.238-1.337 14.26-2.135 29.027-2.381 44.084z" fill="#D09220"/><path d="m195.59 279.89c-6.966-5.266-13.919-10.829-20.812-16.655-8.549-0.453-16.961-1.086-25.177-1.91-0.739-7.372-1.323-14.902-1.765-22.546-5.783-5.636-11.346-11.328-16.662-17.044 0.347 12.847 1.095 25.46 2.243 37.696-8.692-1.166-17.118-2.547-25.229-4.132-2.605 5.041-4.962 9.992-7.052 14.826 10.841 2.231 22.241 4.103 34.072 5.593 2.007 15.934 4.708 31.082 8.047 45.138 4.663-2.309 9.507-4.989 14.489-8.013-2.499-11.14-4.591-22.97-6.249-35.334 14.262 1.338 29.034 2.135 44.095 2.381z" fill="#D09220"/><path d="m196.3 263.97c4.263 3.352 8.526 6.595 12.773 9.702 3.479-3.16 6.96-6.434 10.435-9.791-4.649 0.111-9.332 0.168-14.041 0.168-3.069 0-6.123-0.032-9.167-0.079z" fill="#D09220"/><path d="m244.98 342.57c-11.062 32.826-25.833 52.424-39.513 52.424-13.679 0-28.451-19.598-39.514-52.424-1.78-5.283-3.439-10.83-4.984-16.596-4.937 2.866-9.753 5.407-14.425 7.622 1.357 4.848 2.792 9.547 4.313 14.062 13.748 40.798 33.142 63.267 54.609 63.267s40.861-22.469 54.609-63.267c2.634-7.816 5.024-16.156 7.161-24.936-4.761-1.994-9.687-4.273-14.747-6.812-2.207 9.445-4.714 18.368-7.509 26.66z" fill="#D09220"/><path d="m347.66 150.85c-7.819-2.635-16.162-5.026-24.945-7.163-0.299 0.714-0.595 1.426-0.906 2.147-1.781 4.127-3.752 8.334-5.89 12.603 9.443 2.208 18.364 4.715 26.654 7.509 32.826 11.062 52.424 25.833 52.424 39.513s-19.598 28.451-52.424 39.513c-5.272 1.777-10.808 3.434-16.563 4.975 0.488 0.841 0.974 1.681 1.445 2.517 2.302 4.085 4.361 8.057 6.181 11.908 4.834-1.354 9.521-2.786 14.024-4.303 40.799-13.75 63.267-33.144 63.267-54.61s-22.468-40.86-63.267-54.609z" fill="#D09220"/><path d="m95.008 252.48c-9.443-2.208-18.363-4.715-26.653-7.508-32.826-11.062-52.424-25.833-52.424-39.513s19.598-28.451 52.424-39.513c5.272-1.776 10.807-3.433 16.561-4.975-0.488-0.841-0.974-1.681-1.445-2.517-2.302-4.085-4.361-8.056-6.181-11.907-4.834 1.354-9.52 2.785-14.022 4.302-40.799 13.75-63.267 33.144-63.267 54.61s22.469 40.86 63.267 54.609c7.819 2.635 16.161 5.026 24.945 7.163 0.298-0.713 0.594-1.426 0.906-2.147 1.779-4.127 3.751-8.335 5.889-12.604z" fill="#D09220"/><path d="m165.95 68.355c11.062-32.826 25.833-52.424 39.513-52.424s28.451 19.598 39.513 52.424c1.78 5.283 3.44 10.83 4.984 16.596 4.938-2.866 9.753-5.407 14.426-7.623-1.356-4.847-2.792-9.546-4.313-14.061-13.749-40.798-33.143-63.267-54.609-63.267s-40.861 22.469-54.609 63.267c-2.634 7.816-5.024 16.156-7.161 24.937 4.761 1.993 9.687 4.273 14.747 6.812 2.207-9.446 4.713-18.369 7.509-26.661z" fill="#D09220"/><path d="m326.01 249.95c-9.136-15.733-21.269-32.349-35.67-48.982 10.088-14.503 18.722-28.84 25.579-42.528 2.138-4.269 4.109-8.476 5.89-12.603 0.312-0.722 0.607-1.434 0.906-2.147 13.708-32.762 13.959-57.327 0.643-69.304-5.441-4.895-12.701-7.376-21.577-7.376-10.549 0-23.302 3.639-37.393 10.319-4.672 2.216-9.488 4.756-14.426 7.623-15.496 8.997-32.143 21.097-48.978 35.66-11.412-7.935-22.76-15.009-33.819-21.037-2.952-1.609-5.856-3.12-8.722-4.558-5.061-2.538-9.986-4.818-14.747-6.812-16.552-6.932-31.177-10.534-43.056-10.534-11.512 0-20.344 3.33-26.251 9.898-10.681 11.875-9.58 32.564 2.905 58.982 1.82 3.851 3.879 7.822 6.181 11.907 0.471 0.836 0.957 1.676 1.445 2.517 9.136 15.733 21.269 32.349 35.67 48.982-10.088 14.503-18.722 28.839-25.578 42.527-2.138 4.269-4.109 8.476-5.89 12.604-0.312 0.721-0.607 1.434-0.906 2.147-13.707 32.762-13.959 57.328-0.644 69.305 5.443 4.894 12.703 7.376 21.578 7.376 10.549 0 23.301-3.639 37.393-10.32 4.672-2.215 9.488-4.756 14.425-7.622 15.496-8.997 32.143-21.097 48.978-35.659 11.411 7.935 22.759 15.009 33.818 21.037 2.953 1.609 5.857 3.121 8.724 4.559 5.061 2.539 9.986 4.818 14.747 6.812 16.551 6.931 31.175 10.533 43.054 10.533 11.511 0 20.343-3.33 26.251-9.898 10.681-11.874 9.579-32.563-2.905-58.981-1.82-3.851-3.879-7.823-6.181-11.908-0.47-0.838-0.956-1.678-1.444-2.519zm-72.823-151.87c4.982-3.023 9.826-5.705 14.49-8.013 13.089-6.479 24.76-10.03 34.104-10.03 5.56 0 9.889 1.357 12.866 4.035 8.855 7.964 7.062 29.125-4.798 56.604-0.018 0.041-0.036 0.082-0.054 0.122-2.09 4.834-4.448 9.785-7.053 14.826-5.902 11.421-13.078 23.305-21.323 35.351-0.547-0.595-1.108-1.188-1.661-1.783-5.316-5.717-10.879-11.41-16.663-17.046-4.859-4.735-9.863-9.433-15.013-14.065-3.948-3.551-7.93-7.012-11.93-10.393-6.893-5.826-13.846-11.389-20.812-16.655-1.155-0.873-2.31-1.745-3.465-2.602 14.234-12.141 28.251-22.426 41.312-30.351zm-33.681 165.8c-3.474 3.357-6.955 6.63-10.435 9.791-4.247-3.107-8.51-6.35-12.773-9.702-8.284-6.513-16.569-13.464-24.74-20.813-8.604-7.739-16.796-15.646-24.513-23.615-3.37-3.48-6.659-6.971-9.836-10.467 3.124-4.268 6.382-8.544 9.748-12.816 6.524-8.282 13.476-16.548 20.811-24.704 7.758-8.625 15.687-16.815 23.656-24.516 3.474-3.357 6.955-6.63 10.435-9.79 4.247 3.107 8.509 6.35 12.772 9.701 8.284 6.513 16.568 13.463 24.739 20.812 8.605 7.74 16.798 15.648 24.516 23.619 3.37 3.48 6.658 6.97 9.834 10.465-3.123 4.267-6.381 8.542-9.746 12.813-6.524 8.283-13.477 16.55-20.813 24.706-7.758 8.626-15.686 16.816-23.655 24.516zm-121.37-106.15c-1.148-1.903-2.252-3.793-3.309-5.668-1.701-3.018-3.252-5.963-4.666-8.831-10.793-21.905-13.127-39.12-6.084-46.95 3.332-3.705 8.906-5.583 16.566-5.583 10.929 0 24.709 3.676 40.173 10.378 4.79 2.076 9.741 4.443 14.82 7.081 11.282 5.859 23.191 13.057 35.346 21.381-0.585 0.538-1.169 1.089-1.754 1.632-5.706 5.3-11.406 10.86-17.067 16.662-4.727 4.845-9.427 9.846-14.075 15.014-3.553 3.951-7.014 7.931-10.392 11.926-5.834 6.9-11.397 13.851-16.654 20.802-0.883 1.167-1.766 2.335-2.631 3.503-11.978-14.047-22.229-28.016-30.273-41.347zm59.612 155.12c-4.982 3.023-9.826 5.704-14.489 8.013-13.089 6.479-24.76 10.03-34.104 10.03-5.561 0-9.89-1.357-12.867-4.035-8.855-7.965-7.062-29.125 4.799-56.604 0.018-0.041 0.036-0.082 0.054-0.122 2.09-4.834 4.447-9.785 7.052-14.826 5.901-11.42 13.076-23.304 21.322-35.351 0.548 0.596 1.11 1.19 1.664 1.786 5.316 5.716 10.879 11.409 16.662 17.044 4.858 4.735 9.861 9.431 15.011 14.063 3.949 3.551 7.93 7.012 11.93 10.393 6.893 5.826 13.846 11.389 20.812 16.655 1.155 0.873 2.31 1.745 3.465 2.602-14.236 12.142-28.251 22.427-41.311 30.352zm169.11 1.799c-3.332 3.704-8.905 5.583-16.565 5.583-10.928 0-24.708-3.675-40.171-10.377-4.79-2.076-9.742-4.442-14.82-7.08-11.282-5.859-23.191-13.057-35.347-21.382 0.585-0.538 1.169-1.089 1.754-1.632 5.706-5.3 11.406-10.86 17.067-16.662 4.727-4.844 9.427-9.846 14.075-15.014 3.554-3.951 7.014-7.932 10.393-11.928 5.834-6.901 11.398-13.852 16.655-20.803 0.882-1.167 1.764-2.333 2.628-3.5 11.977 14.047 22.228 28.016 30.273 41.347 1.148 1.903 2.252 3.793 3.309 5.668 1.701 3.018 3.252 5.963 4.666 8.831 10.793 21.905 13.126 39.119 6.083 46.949z" fill="#D43D21"/></svg>