<svg xmlns="http://www.w3.org/2000/svg" version="1.1" x="0" y="0" width="512" height="512" viewBox="0 0 482.81 482.81" xml:space="preserve"><path d="M464.764 25.771H18.037C8.086 25.771 0 33.869 0 43.808v395.196c0 6.106 3.068 11.491 7.729 14.76v2.843h6.469c1.241.272 2.518.432 3.839.432h446.738a17.7 17.7 0 0 0 3.83-.432h.887v-.271c7.654-2.093 13.317-9.032 13.317-17.331V43.813c.001-9.944-8.092-18.042-18.045-18.042zm2.583 18.042v51.979H348.363v-54.56h116.4a2.583 2.583 0 0 1 2.584 2.581zm-1.242 397.332H348.363V392.18h118.983v46.824c.001.916-.514 1.691-1.241 2.141zm-450.648-2.141V392.18h55.842v48.965H16.698c-.727-.45-1.241-1.225-1.241-2.141zM201.448 256.87v53.61H86.758v-53.61h114.69zm-114.69-15.463v-57.99h114.689v57.99H86.758zm114.69 84.536v50.773H86.758v-50.773h114.69zm0 66.237v48.965H86.758V392.18h114.69zm15.465 0H332.9v48.965H216.913V392.18zm0-15.463v-50.779H332.9v50.779H216.913zm0-66.237v-53.61H332.9v53.61H216.913zm0-69.073v-57.99H332.9v57.99H216.913zm0-73.453v-56.702H332.9v56.702H216.913zm0-72.167v-54.56H332.9v54.56H216.913zm-15.465 0H86.758v-54.56h114.689v54.56zm0 15.465v56.702H86.758v-56.702h114.69zM71.299 167.954H15.457v-56.702h55.842v56.702zm0 15.463v57.99H15.457v-57.99h55.842zm0 73.453v53.61H15.457v-53.61h55.842zm0 69.073v50.773H15.457v-50.773h55.842zm277.064 50.774v-50.779h118.983v50.779H348.363zm0-66.237v-53.61h118.983v53.61H348.363zm0-69.073v-57.99h118.983v57.99H348.363zm0-73.453v-56.702h118.983v56.702H348.363z" fill="#D80027"/></svg>