<svg version="1.1" xmlns="http://www.w3.org/2000/svg" x="0" y="0" viewBox="0 0 491.352 491.352" xml:space="preserve"><path d="M435.676 6.552c1.6 4.8-1.6 9.6-6.4 10.4l-364 90.4c-4.8.8-9.6-1.6-10.4-6.4-1.6-4.8 1.6-9.6 6.4-10.4l364-90.4c4.8-.8 9.6 1.6 10.4 6.4z" fill="#24966a"/><circle cx="245.276" cy="420.952" r="70.4" fill="#19aacc"/><path d="M315.676 420.952c0 39.2-32 70.4-70.4 70.4s-70.4-32-70.4-70.4" fill="#1589ad"/><path d="M261.276 412.152c0 8.8-7.2 17.6-16 17.6s-16-8.8-16-17.6v-384c0-8.8 6.4-16.8 15.2-16.8 8.8 0 16.8 7.2 16.8 16v384.8z" fill="#f4ad31"/><path d="M244.476 12.152c9.6 0 16.8 8 16.8 17.6v382.4c0 9.6-7.2 17.6-17.6 17.6" fill="#e28413"/><path d="M.476 245.752c.8 40 33.6 72.8 74.4 72.8s73.6-32.8 74.4-72.8H.476z" fill="#24966a"/><path d="M75.676 318.552c40.8 0 72.8-32.8 73.6-72.8h-88" fill="#007763"/><g fill="#e28413"><path d="M21.276 229.752h48v8h-48zM21.276 213.752h48v8h-48zM21.276 197.752h48v8h-48zM21.276 181.752h48v8h-48zM77.276 229.752h48v8h-48zM77.276 213.752h48v8h-48zM77.276 197.752h48v8h-48z"/></g><path d="M341.276 165.752c.8 40 33.6 72.8 74.4 72.8s73.6-32.8 74.4-72.8h-148.8z" fill="#24966a"/><path d="M414.876 238.552c40.8 0 75.2-32.8 76-72.8h-93.6" fill="#007763"/><g fill="#e28413"><path d="M365.276 149.752h48v8h-48zM421.276 149.752h48v8h-48zM421.276 133.752h48v8h-48z"/></g></svg>