<svg version="1.1" xmlns="http://www.w3.org/2000/svg" x="0" y="0" viewBox="0 0 512 512" xml:space="preserve"><path d="M72.125 48.434v279.787c0 14.242 5.546 27.631 15.617 37.702s23.46 15.617 37.701 15.617h.955c14.242 0 27.631-5.546 37.701-15.617 10.071-10.071 15.617-23.46 15.617-37.701V48.434H72.125z" fill="#edeef0"/><path d="M125.92 48.434v333.104h.48c14.242 0 27.631-5.546 37.701-15.617 10.071-10.071 15.617-23.46 15.617-37.701V48.434H125.92z" fill="#dcdee2"/><path d="M91.528 328.221c0 9.06 3.528 17.576 9.934 23.983 6.406 6.406 14.923 9.934 23.982 9.934h.955c9.06 0 17.576-3.528 23.983-9.934 6.406-6.406 9.934-14.923 9.934-23.983V141.608H91.528v186.613z" fill="#61a2ef"/><path d="M125.92 141.608v220.53h.48c9.06 0 17.576-3.528 23.983-9.934 6.406-6.406 9.934-14.923 9.934-23.983V141.608H125.92z" fill="#528acf"/><g fill="#fff"><circle cx="133.76" cy="166.94" r="15.392"/><circle cx="110.33" cy="253.55" r="10.883"/></g><g fill="#edeef0"><circle cx="140.65" cy="295.44" r="10.883"/><path d="M133.762 151.539c-2.865 0-5.546.785-7.842 2.149v26.486a15.313 15.313 0 0 0 7.842 2.149c8.501 0 15.392-6.891 15.392-15.392s-6.891-15.392-15.392-15.392zM332.282 48.434v279.787c0 14.242 5.546 27.631 15.617 37.702 10.071 10.071 23.46 15.617 37.701 15.617h.955c14.242 0 27.631-5.546 37.701-15.617 10.071-10.071 15.617-23.46 15.617-37.701V48.434H332.282z"/></g><path d="M386.077 48.434v333.104h.48c14.242 0 27.631-5.546 37.701-15.617 10.071-10.071 15.617-23.46 15.617-37.701V48.434h-53.798z" fill="#dcdee2"/><path d="M351.684 328.221c0 9.06 3.528 17.576 9.934 23.983 6.406 6.406 14.923 9.934 23.982 9.934h.955c9.06 0 17.576-3.528 23.983-9.934 6.406-6.406 9.934-14.923 9.934-23.983V141.608h-68.788v186.613z" fill="#f74d37"/><path d="M386.077 141.608v220.53h.48c9.06 0 17.576-3.528 23.983-9.934 6.406-6.406 9.934-14.923 9.934-23.983V141.608h-34.397z" fill="#b03727"/><circle cx="393.91" cy="166.94" r="15.392" fill="#fff"/><circle cx="401.2" cy="253.55" r="10.883" fill="#edeef0"/><circle cx="373.97" cy="319.52" r="10.883" fill="#fff"/><g fill="#edeef0"><path d="M393.919 151.539c-2.865 0-5.546.785-7.842 2.149v26.486a15.313 15.313 0 0 0 7.842 2.149c8.501 0 15.392-6.891 15.392-15.392s-6.891-15.392-15.392-15.392zM202.205 48.434v279.787c0 14.242 5.546 27.631 15.617 37.702s23.46 15.617 37.701 15.617h.955c14.242 0 27.631-5.546 37.701-15.617 10.071-10.071 15.617-23.46 15.617-37.701V48.434H202.205z"/></g><path d="M255.998 48.434v333.104h.48c14.242 0 27.631-5.546 37.701-15.617 10.071-10.071 15.617-23.46 15.617-37.701V48.434h-53.798z" fill="#dcdee2"/><path d="M221.607 328.221c0 9.06 3.528 17.576 9.934 23.983 6.406 6.406 14.923 9.934 23.982 9.934h.955c9.06 0 17.576-3.528 23.983-9.934 6.406-6.406 9.934-14.923 9.934-23.983v-77.707h-68.788v77.707z" fill="#f9d026"/><path d="M255.998 250.514v111.623h.48c9.06 0 17.576-3.528 23.983-9.934 6.406-6.406 9.934-14.923 9.934-23.983v-77.707l-34.397.001z" fill="#e7c224"/><circle cx="273.19" cy="271.87" r="10.883" fill="#edeef0"/><circle cx="240.41" cy="319.52" r="10.883" fill="#fff"/><path d="M0 199.128v264.438h512V199.128H0zm23.822 232.51V222.95h464.355v208.688H23.822z" fill="#444242"/></svg>