<svg version="1.1" xmlns="http://www.w3.org/2000/svg" x="0" y="0" viewBox="0 0 511.984 511.984" xml:space="preserve"><path d="M255.992 407.948V79.958c-19.999-24-227.993-16-227.993-16v343.99s207.994-7.999 227.993 16v-16z" fill="#e6e9ed"/><path d="M255.992 423.948c-19.999-23.999-227.993-16-227.993-16V79.958H12c-4.477 0-8 3.516-8 8v335.99a7.975 7.975 0 0 0 8 7.999h216.876s15.516 8 27.116 8v-15.999z" fill="#5d9cec"/><path d="M12 423.948V95.958v-8c0-4.484 3.523-8 8-8h-8c-4.477 0-8 3.516-8 8v335.99a7.975 7.975 0 0 0 8 7.999h8c-4.399 0-8-3.523-8-7.999z" fill="#fff" opacity=".4"/><path d="M255.992 423.948c20-23.999 227.994-16 227.994-16V63.958s-207.994-8-227.994 16v343.99z" fill="#e6e9ed"/><path d="M255.992 423.948c20-23.999 227.994-16 227.994-16V79.958h15.999c4.477 0 7.999 3.516 7.999 8v335.99a7.974 7.974 0 0 1-7.999 7.999H283.109s-15.516 8-27.117 8v-15.999z" fill="#5d9cec"/><path d="M499.985 423.948V95.958v-8c0-4.484-3.523-8-8-8h8c4.477 0 7.999 3.516 7.999 8v335.99a7.974 7.974 0 0 1-7.999 7.999h-8c4.399 0 8-3.523 8-7.999z" opacity=".2"/><path d="M155.995 216.032c0 6.641-5.358 12-11.999 12s-12-5.359-12-12c0-6.64 5.359-12 12-12s11.999 5.36 11.999 12z" fill="#ac92ec"/><path d="M139.996 216.032c0-5.226 3.344-9.617 8-11.265-1.258-.445-2.586-.734-4-.734-6.641 0-12 5.359-12 12s5.359 12 12 12c1.414 0 2.742-.289 4-.734-4.656-1.65-8-6.04-8-11.267z" fill="#fff" opacity=".3"/><path d="M147.996 216.032c0 5.227-3.344 9.617-8 11.266 1.258.445 2.586.734 4 .734a11.982 11.982 0 0 0 11.999-12c0-6.64-5.358-12-11.999-12-1.414 0-2.742.289-4 .734 4.656 1.649 8 6.04 8 11.266z" opacity=".2"/><path fill="#ed5565" d="M307.991 455.947l-8-7.922-7.999 7.922V56.037h15.999z"/><path d="M35.999 63.693c-5.062.156-8 .266-8 .266v343.99s2.938-.109 8-.266V63.693z" fill="#fff"/><path d="M475.986 63.693c5.062.156 8 .266 8 .266v343.99s-2.938-.109-8-.266V63.693zM307.992 66.512h7.977v343.26h-7.977zM284.012 68.432h7.977v343.99h-7.977z" opacity=".2"/><path fill="#fff" d="M299.991 56.037h-7.999v399.91l7.999-7.922z" opacity=".3"/><g fill="#3a3847"><path d="M143.996 232.032c-8.82 0-16-7.18-16-16s7.18-15.999 16-15.999 15.999 7.179 15.999 15.999-7.179 16-15.999 16zm0-23.999c-4.414 0-8 3.586-8 8s3.586 8 8 8 8-3.586 8-8c0-4.415-3.586-8-8-8z"/><path d="M143.996 248.031h-3.758c-2.211 0-4-1.789-4-4 0-2.21 1.789-4 4-4h3.758c42.429 0 71.998-12.648 71.998-24 0-11.351-29.569-23.999-71.998-23.999h-4c-2.211 0-4-1.789-4-4s1.789-4 4-4h4c38.78 0 79.997 11.219 79.997 31.999 0 20.782-41.217 32-79.997 32zM91.92 240.43c-.438 0-.875-.07-1.312-.219-17.156-5.968-26.609-14.554-26.609-24.179 0-9.726 9.484-18.319 26.711-24.187 2.085-.688 4.358.406 5.077 2.5a4 4 0 0 1-2.5 5.078c-13.327 4.539-21.288 10.75-21.288 16.608 0 5.781 7.938 12 21.233 16.617a4.01 4.01 0 0 1 2.469 5.093 4.003 4.003 0 0 1-3.781 2.689z"/><path d="M169.354 232.032a4.033 4.033 0 0 1-1.977-.523 3.995 3.995 0 0 1-1.5-5.453c4.422-7.781 8.219-15.679 11.273-23.483.805-2.062 3.109-3.062 5.188-2.266a4.005 4.005 0 0 1 2.266 5.187c-3.195 8.156-7.156 16.406-11.773 24.515a3.99 3.99 0 0 1-3.477 2.023z"/><path d="M111.911 287.366c-3.312 0-5.914-.875-7.906-2.023-4.695-2.727-10.047-9.358-8.961-25.577 1.219-16.726 8.961-38.491 21.25-59.732 6.172-10.703 13.319-20.875 20.671-29.405 18.453-21.273 36.015-30.195 47.015-23.906 8.14 4.742 10.882 16.273 7.96 33.342-.375 2.188-2.477 3.633-4.616 3.273a4.009 4.009 0 0 1-3.273-4.617c2.242-13.117.758-22.257-4.07-25.078-5.875-3.383-19.602 2.195-36.96 22.21-7.023 8.156-13.875 17.898-19.796 28.179-11.539 19.937-19.086 40.983-20.195 56.288-.633 9.43 1.133 15.866 4.977 18.093 4.414 2.547 12.273-.094 21.554-7.233a4.007 4.007 0 0 1 5.609.734 4.003 4.003 0 0 1-.734 5.608c-9.698 7.461-17.072 9.844-22.525 9.844zM107.114 208.033a4.004 4.004 0 0 1-3.727-2.547c-11.437-29.358-11.203-51.874.594-58.748 5.328-3.062 14.914-4.195 30.468 7.898a3.994 3.994 0 0 1 .703 5.609 3.996 3.996 0 0 1-5.609.703c-9.265-7.195-17.108-9.867-21.554-7.289-6.344 3.703-8.18 20.601 2.852 48.921a4 4 0 0 1-3.727 5.453z"/><path d="M176.003 287.397c-18.109 0-42.991-26.397-59.709-55.365a29.189 29.189 0 0 1-1.234-2.211c-.984-1.977-.188-4.375 1.789-5.367s4.375-.188 5.367 1.789a20.2 20.2 0 0 0 .938 1.68c21.249 36.812 47.006 56.092 56.857 50.475 3.82-2.211 5.586-8.647 4.953-18.101a4.004 4.004 0 0 1 3.726-4.258c2.039-.156 4.117 1.516 4.258 3.727 1.086 16.219-4.266 22.851-8.944 25.569-2.462 1.406-5.15 2.062-8.001 2.062zM219.993 332.029H67.998c-2.211 0-4-1.789-4-4s1.789-4 4-4h151.995c2.211 0 4 1.789 4 4s-1.789 4-4 4zM187.994 348.028H99.997c-2.211 0-4-1.789-4-4s1.789-4 4-4h87.997c2.211 0 4 1.789 4 4s-1.789 4-4 4zM443.986 132.035H323.99c-2.211 0-4-1.789-4-4 0-2.211 1.789-4 4-4h119.996c2.211 0 4 1.789 4 4 0 2.211-1.789 4-4 4zM443.986 156.034H323.99c-2.211 0-4-1.789-4-4s1.789-4 4-4h119.996c2.211 0 4 1.789 4 4s-1.789 4-4 4zM443.986 180.033H323.99c-2.211 0-4-1.789-4-4s1.789-4 4-4h119.996c2.211 0 4 1.789 4 4s-1.789 4-4 4zM443.986 204.033H323.99c-2.211 0-4-1.789-4-4s1.789-4 4-4h119.996c2.211 0 4 1.789 4 4s-1.789 4-4 4zM443.986 228.032H323.99c-2.211 0-4-1.789-4-4s1.789-4 4-4h119.996c2.211 0 4 1.789 4 4s-1.789 4-4 4zM443.986 252.031H323.99c-2.211 0-4-1.789-4-4s1.789-4 4-4h119.996c2.211 0 4 1.789 4 4s-1.789 4-4 4zM443.986 276.03H323.99c-2.211 0-4-1.788-4-3.999s1.789-4 4-4h119.996c2.211 0 4 1.789 4 4s-1.789 3.999-4 3.999zM443.986 300.029H323.99c-2.211 0-4-1.788-4-3.999s1.789-4 4-4h119.996c2.211 0 4 1.789 4 4s-1.789 3.999-4 3.999zM443.986 324.029H323.99c-2.211 0-4-1.789-4-4s1.789-4 4-4h119.996c2.211 0 4 1.789 4 4s-1.789 4-4 4zM443.986 348.028H323.99c-2.211 0-4-1.789-4-4s1.789-4 4-4h119.996c2.211 0 4 1.789 4 4s-1.789 4-4 4zM291.992 459.947c-2.211 0-4-1.789-4-4V56.037c0-2.211 1.789-4 4-4a3.997 3.997 0 0 1 3.999 4v399.91c0 2.211-1.789 4-3.999 4zM307.991 459.947c-2.211 0-4-1.789-4-4V56.037c0-2.211 1.789-4 4-4s4 1.789 4 4v399.91c0 2.211-1.789 4-4 4z"/><path d="M307.991 60.037h-15.999c-2.211 0-4-1.789-4-4s1.789-4 4-4h15.999c2.211 0 4 1.789 4 4s-1.789 4-4 4zM291.992 459.947a3.998 3.998 0 0 1-2.813-6.844l7.999-7.922c1.57-1.562 4.102-1.539 5.656.031a4 4 0 0 1-.031 5.656l-8 7.922a3.977 3.977 0 0 1-2.811 1.157z"/><path d="M307.991 459.947a3.98 3.98 0 0 1-2.812-1.156l-8-7.922a3.998 3.998 0 0 1-.031-5.656 3.991 3.991 0 0 1 5.656-.031l8 7.922a3.998 3.998 0 0 1-2.813 6.843zM27.999 411.948a3.997 3.997 0 0 1-3.999-4V63.959c0-2.211 1.789-4 3.999-4 2.211 0 4 1.789 4 4v343.989c0 2.211-1.789 4-4 4z"/><path d="M255.992 427.948a3.996 3.996 0 0 1-3.07-1.438c-13.655-16.383-145.112-17.633-224.767-14.562h-.156A4.003 4.003 0 0 1 24 408.104a4.01 4.01 0 0 1 3.844-4.155c21.499-.82 210.563-7.359 231.219 17.437a4 4 0 0 1-3.071 6.562zM255.992 83.958a3.996 3.996 0 0 1-3.07-1.438C239.267 66.13 107.81 64.872 28.155 67.958h-.156A4.003 4.003 0 0 1 24 64.114a4.011 4.011 0 0 1 3.844-4.156c21.499-.828 210.563-7.359 231.219 17.437a4 4 0 0 1-3.071 6.563zM4 427.948c-2.211 0-4-1.789-4-4V95.958c0-2.211 1.789-4 4-4s4 1.789 4 4v327.99c0 2.211-1.789 4-4 4zM255.992 443.947c-10.913 0-24.46-6.242-28.062-8H12c-2.211 0-4-1.789-4-4s1.789-3.999 4-3.999h216.876a4.02 4.02 0 0 1 1.828.444c.148.07 14.812 7.555 25.288 7.555 2.211 0 4 1.789 4 4s-1.789 4-4 4z"/><path d="M255.992 411.948c-2.211 0-4-1.789-4-4V87.958c0-2.211 1.789-4 4-4s4 1.789 4 4v319.99c0 2.211-1.789 4-4 4zM4 99.958c-2.211 0-4-1.789-4-4v-8c0-6.726 5.273-11.999 12-11.999 2.211 0 4 1.789 4 4s-1.789 4-4 4c-2.281 0-4 1.718-4 4v8a3.997 3.997 0 0 1-4 3.999zM12 435.947c-6.617 0-12-5.383-12-11.999 0-2.211 1.789-4 4-4s4 1.789 4 4c0 2.242 1.758 4 4 4 2.211 0 4 1.788 4 3.999s-1.789 4-4 4z"/><path d="M27.999 83.958H12c-2.211 0-4-1.789-4-4s1.789-4 4-4h15.999c2.211 0 4 1.789 4 4s-1.789 4-4 4zM483.986 411.948c-2.211 0-4-1.789-4-4V63.959c0-2.211 1.789-4 4-4a3.997 3.997 0 0 1 3.999 4v343.989c0 2.211-1.789 4-3.999 4zM255.992 427.948a3.969 3.969 0 0 1-2.586-.953 3.992 3.992 0 0 1-.461-5.633c2.734-3.227 7.547-5.828 14.703-7.969 6.141-1.914 14.156-3.578 23.789-4.93 2.124-.305 4.202 1.211 4.515 3.406a4 4 0 0 1-3.406 4.516c-9.194 1.297-16.788 2.859-22.569 4.664-7.32 2.18-9.992 4.375-10.938 5.484a3.964 3.964 0 0 1-3.047 1.415z"/><path d="M307.983 414.503a4.005 4.005 0 0 1-3.977-3.609 4.01 4.01 0 0 1 3.594-4.375c67.334-6.663 175.448-2.616 176.541-2.569a4.01 4.01 0 0 1 3.844 4.155c-.086 2.211-1.727 3.836-4.155 3.844-1.086-.047-108.653-4.086-175.448 2.539-.133.007-.266.015-.399.015zM255.992 83.958a4.019 4.019 0 0 1-2.586-.945 4.01 4.01 0 0 1-.469-5.641c4.836-5.718 17.43-9.937 38.5-12.898 2.124-.273 4.202 1.211 4.515 3.406a4 4 0 0 1-3.406 4.516c-25.522 3.586-31.929 8.289-33.499 10.148a4.006 4.006 0 0 1-3.055 1.414zM307.983 70.513a4.005 4.005 0 0 1-3.977-3.609 4.01 4.01 0 0 1 3.594-4.375c67.334-6.664 175.448-2.609 176.541-2.57a4.011 4.011 0 0 1 3.844 4.156c-.086 2.203-1.727 4.031-4.155 3.844-1.086-.047-108.653-4.094-175.448 2.539a6.649 6.649 0 0 1-.399.015zM507.984 427.948a3.997 3.997 0 0 1-3.999-4V95.958c0-2.211 1.789-4 3.999-4 2.211 0 4 1.789 4 4v327.99c0 2.211-1.789 4-4 4zM255.992 443.947c-2.211 0-4-1.789-4-4s1.789-4 4-4c10.508 0 25.141-7.477 25.281-7.555a4.052 4.052 0 0 1 1.836-.444h8.883c2.21 0 3.999 1.788 3.999 3.999s-1.789 4-3.999 4h-7.938c-3.601 1.758-17.148 8-28.062 8zM499.985 435.947H307.991c-2.211 0-4-1.789-4-4s1.789-3.999 4-3.999h191.994c2.211 0 4 1.788 4 3.999s-1.789 4-4 4z"/><path d="M507.984 99.958a3.997 3.997 0 0 1-3.999-4v-8c0-2.281-1.719-4-4-4-2.211 0-4-1.789-4-4s1.789-4 4-4c6.727 0 11.999 5.273 11.999 11.999v8a3.998 3.998 0 0 1-4 4.001zM499.985 435.947c-2.211 0-4-1.789-4-4s1.789-3.999 4-3.999c2.242 0 4-1.758 4-4 0-2.211 1.789-4 3.999-4 2.211 0 4 1.789 4 4 0 6.616-5.382 11.999-11.999 11.999z"/><path d="M499.985 83.958h-15.999c-2.211 0-4-1.789-4-4s1.789-4 4-4h15.999c2.211 0 4 1.789 4 4s-1.789 4-4 4z"/></g></svg>