<svg version="1.1" xmlns="http://www.w3.org/2000/svg" x="0" y="0" viewBox="0 0 56 56" xml:space="preserve"><path d="M50 0c0 7.456-9.85 15-22 15S6 7.456 6 0h44z" fill="#e6e6e6"/><path d="M27.969 19c2.163 0 4.203.506 6.031 1.384V14.37c-1.908.404-3.919.63-6 .63s-4.092-.226-6-.63v5.984A13.889 13.889 0 0 1 27.969 19z" fill="#a5a5a5"/><path d="M12 56a1 1 0 1 1 0-2c1.654 0 3-1.346 3-3a1 1 0 1 1 2 0c0 2.757-2.243 5-5 5zM45 56c-2.757 0-5-2.243-5-5a1 1 0 1 1 2 0c0 1.654 1.346 3 3 3a1 1 0 1 1 0 2z" fill="#d2d5d7"/><path d="M40.026 40c-2.423 4.145-6.909 6.938-12.057 6.938S18.335 44.145 15.912 40h-5.054c-1.982 0-3.361 1.969-2.684 3.831L10.781 51h35.438l2.607-7.169c.677-1.862-.702-3.831-2.684-3.831h-6.116z" fill="#38454f"/><path d="M26.989 11c-2.746 0-5.275-.422-7.519-1.254a1 1 0 0 1 .695-1.875C22.186 8.62 24.481 9 26.989 9H27a1 1 0 1 1 0 2h-.011zM16.447 7.861a.997.997 0 0 1-.664-.252c-1.114-.988-1.747-2.26-1.783-3.582A1.001 1.001 0 0 1 14.973 3c.534.02 1.012.42 1.027.973.021.763.415 1.523 1.111 2.141a1 1 0 0 1-.664 1.747z" fill="#fff"/><circle cx="27.969" cy="32.969" r="13.969" fill="#e6e6e6"/><circle cx="27.969" cy="32.969" r="13.969" fill="#dae7ef"/><path d="M27.969 47.438c-7.979 0-14.469-6.49-14.469-14.469S19.99 18.5 27.969 18.5s14.469 6.49 14.469 14.469-6.491 14.469-14.469 14.469zm0-27.938c-7.427 0-13.469 6.042-13.469 13.469s6.042 13.469 13.469 13.469 13.469-6.042 13.469-13.469S35.396 19.5 27.969 19.5z" fill="#bbd7ea"/><path d="M30.047 34.384A3.047 3.047 0 0 1 27 31.337c0-1.338 5.566-4.187 7.846-5.298a.373.373 0 0 1 .499.499c-1.111 2.28-3.96 7.846-5.298 7.846z" fill="#ed3f32"/><path d="M28 24h-1a1 1 0 1 1 0-2h1a1 1 0 1 1 0 2zM28 43h-1a1 1 0 1 1 0-2h1a1 1 0 1 1 0 2zM19 33h-1a1 1 0 1 1 0-2h1a1 1 0 1 1 0 2zM38 33h-1a1 1 0 1 1 0-2h1a1 1 0 1 1 0 2z" fill="#fff"/></svg>