<svg xmlns="http://www.w3.org/2000/svg" version="1.1" x="0" y="0" viewBox="0 0 512 512" xml:space="preserve" width="512" height="512"><g fill="#91DC5A"><path d="M138.667 298.667A10.66 10.66 0 0 0 128 309.334v32h-21.333v-32c0-5.896-4.771-10.667-10.667-10.667s-10.667 4.771-10.667 10.667v85.333c0 5.896 4.771 10.667 10.667 10.667s10.667-4.771 10.667-10.667v-32H128v32a10.66 10.66 0 0 0 10.667 10.667 10.66 10.66 0 0 0 10.667-10.667v-85.333a10.662 10.662 0 0 0-10.667-10.667zM416 298.667a10.66 10.66 0 0 0-10.667 10.667v32H384v-32a10.66 10.66 0 0 0-10.667-10.667 10.66 10.66 0 0 0-10.667 10.667v85.333a10.66 10.66 0 0 0 10.667 10.667A10.66 10.66 0 0 0 384 394.667v-32h21.333v32A10.66 10.66 0 0 0 416 405.334a10.66 10.66 0 0 0 10.667-10.667v-85.333A10.66 10.66 0 0 0 416 298.667zM256 128c-11.76 0-21.333 9.573-21.333 21.333V192c0 11.76 9.573 21.333 21.333 21.333s21.333-9.573 21.333-21.333v-42.667c0-11.76-9.573-21.333-21.333-21.333z"/><path d="M447.652 227.813C444.001 125.137 359.551 42.667 256 42.667c-104.547 0-189.693 84.043-191.802 188.095C25.098 253.281 0 294.921 0 341.333c0 70.583 57.417 128 128 128 38.424 0 73.473-17.328 97.268-45.385 10.263 1.672 20.57 2.719 30.732 2.719 11.432 0 23.072-1.329 34.699-3.477 23.801 28.513 59.152 46.143 97.926 46.143 70.583 0 123.375-57.417 123.375-128 0-48.351-22.405-91.776-64.348-113.52zM128 426.667c-47.052 0-85.333-38.281-85.333-85.333 0-33.75 19.521-63.844 50.042-77.646 54.479 16.625 96.313 58.458 112.938 112.927-13.814 30.531-43.897 50.052-77.647 50.052zM298.667 192c0 23.531-19.135 42.667-42.667 42.667S213.333 215.531 213.333 192v-42.667c0-23.531 19.135-42.667 42.667-42.667s42.667 19.135 42.667 42.667V192zm89.958 234.667c-33.75 0-63.833-19.531-77.646-50.052 16.625-54.469 58.458-96.302 112.927-112.927 30.521 13.813 50.052 43.896 50.052 77.646 0 47.051-38.281 85.333-85.333 85.333z"/></g></svg>