<svg version="1.1" xmlns="http://www.w3.org/2000/svg" x="0" y="0" viewBox="0 0 512 512" xml:space="preserve"><g fill="#f9f8f9"><path d="M503.983 311.048h-55.048V256zM255.466 63.065h-54.514V8.551z"/></g><g fill="#5cc4e0"><path d="M8.017 8.017v495.966h495.966V256H256V8.017z"/><path d="M255.466 8.551h-54.514l54.514 54.514z"/></g><path fill="#fff" d="M200.952 63.065h54.514L200.952 8.551z"/><path fill="#ff675c" d="M255.466 63.065L200.952 8.551l-.534-.534H8.017V256H256V63.599z"/><path fill="#db3d5a" d="M8.017 256H256L8.017 8.017z"/><path fill="#faec8e" d="M448.935 256H256v247.983h247.983V311.048z"/><path fill="#fbc96c" d="M256 503.983h247.983L256 256z"/><g fill="#fff"><path d="M448.935 311.048h55.048L448.935 256zM104.217 332.426c8.21 0 16.337 2.398 23.503 6.934a8.016 8.016 0 1 0 8.577-13.547c-9.737-6.162-20.828-9.42-32.08-9.42-36.247 0-65.737 33.326-65.737 74.288s29.49 74.288 65.737 74.288c11.251 0 22.343-3.258 32.08-9.42a8.016 8.016 0 1 0-8.577-13.547c-7.166 4.536-15.293 6.934-23.503 6.934-27.408 0-49.704-26.132-49.704-58.255s22.297-58.255 49.704-58.255z"/><path d="M185.453 376.251c-24.459 0-44.359 19.9-44.359 44.359 0 24.459 19.9 44.359 44.359 44.359s44.359-19.9 44.359-44.359c0-24.46-19.899-44.359-44.359-44.359zm0 72.684c-15.619 0-28.326-12.707-28.326-28.326s12.707-28.326 28.326-28.326 28.326 12.707 28.326 28.326-12.707 28.326-28.326 28.326zM439.85 324.944a8.016 8.016 0 0 0-8.017 8.017v99.378L325.993 318.94a8.017 8.017 0 0 0-13.876 5.471v132.543a8.016 8.016 0 0 0 8.017 8.017 8.016 8.016 0 0 0 8.017-8.017V344.747l105.84 113.399a8.017 8.017 0 0 0 13.876-5.471V332.959a8.016 8.016 0 0 0-8.017-8.015zM110.63 196.676c-4.428 0-8.017 3.588-8.017 8.017s3.588 8.017 8.017 8.017h42.756c4.428 0 8.017-3.588 8.017-8.017s-3.588-8.017-8.017-8.017h-13.361V67.34h13.361c4.428 0 8.017-3.588 8.017-8.017s-3.588-8.017-8.017-8.017H110.63c-4.428 0-8.017 3.588-8.017 8.017s3.588 8.017 8.017 8.017h13.361v129.336H110.63z"/></g><path d="M512 256a8.016 8.016 0 0 0-8.017-8.017h-138.36a8.016 8.016 0 0 0-8.017 8.017 8.016 8.016 0 0 0 8.017 8.017h75.295v47.031a8.016 8.016 0 0 0 8.017 8.017h47.031v176.902h-231.95v-231.95h62.53a8.016 8.016 0 0 0 8.017-8.017 8.016 8.016 0 0 0-8.017-8.017h-62.53V9.086c0-.09-.011-.177-.014-.266.003-.088.014-.173.014-.261.004-4.427-3.582-8.554-8.009-8.559H96.376c-4.424 0-8.012 3.967-8.017 8.392a8.017 8.017 0 0 0 8.009 8.024l96.567.092v46.557a8.016 8.016 0 0 0 8.017 8.017h47.031v176.902H16.033V16.033H62.53c4.428 0 8.017-3.588 8.017-8.017S66.959 0 62.53 0H8.017A8.015 8.015 0 0 0 0 8.017v495.967A8.015 8.015 0 0 0 8.017 512h495.967a8.016 8.016 0 0 0 8.017-8.017L512 256zM247.983 43.844l-27.577-27.309 27.577.027v27.282zm-39.014-15.938l27.142 27.142h-27.142V27.906zM16.033 264.017h231.95v231.95H16.033v-231.95zm479.934 27.677l-27.677-27.677h27.677v27.677zm-39.015-16.34l27.677 27.677h-27.677v-27.677z"/></svg>