<svg version="1.1" xmlns="http://www.w3.org/2000/svg" x="0" y="0" viewBox="0 0 511.999 511.999" xml:space="preserve"><path d="M314.994 208.181c3.844 0 7.687-1.466 10.619-4.399l63.134-63.134c5.865-5.865 5.865-15.374 0-21.239-5.864-5.865-15.374-5.865-21.239 0l-63.134 63.134c-5.865 5.865-5.865 15.374 0 21.239a14.969 14.969 0 0 0 10.62 4.399z" fill="#00e7f0"/><path d="M194.38 206.364c3.865 0 7.729-1.483 10.666-4.444 5.84-5.89 5.799-15.399-.092-21.239L88.782 65.51c-5.889-5.84-15.399-5.799-21.239.092s-5.799 15.399.092 21.239l116.171 115.17a14.972 14.972 0 0 0 10.574 4.353z" fill="#51faff"/><g fill="#00e7f0"><path d="M287.209 328.093c-1.923-8.069-10.023-13.047-18.092-11.125-8.069 1.923-13.049 10.024-11.125 18.092l25.341 106.264c1.645 6.897 7.803 11.538 14.596 11.538 1.153 0 2.325-.134 3.496-.414 8.069-1.923 13.049-10.024 11.125-18.092l-25.341-106.263zM451.029 373.268l-112.977-96.274c-6.313-5.379-15.791-4.625-21.172 1.69-5.38 6.313-4.623 15.792 1.69 21.172l112.977 96.274a14.96 14.96 0 0 0 9.735 3.587 14.99 14.99 0 0 0 11.438-5.277c5.378-6.313 4.621-15.793-1.691-21.172z"/></g><path d="M185.818 297.572l-63.134 63.134c-5.865 5.865-5.865 15.374 0 21.239 2.933 2.933 6.776 4.399 10.619 4.399s7.687-1.466 10.619-4.399l63.134-63.134c5.865-5.865 5.865-15.374 0-21.239-5.863-5.866-15.372-5.866-21.238 0z" fill="#51faff"/><path d="M351.656 248.919c0 53.856-43.824 97.68-97.68 97.68s-97.68-43.824-97.68-97.68 43.824-97.68 97.68-97.68 97.68 43.823 97.68 97.68z" fill="#00cc71"/><path d="M454.304 103.712c0-27.856-22.663-50.52-50.519-50.52s-50.519 22.663-50.519 50.52 22.663 50.519 50.519 50.519 50.519-22.663 50.519-50.519z" fill="#00ab94"/><path d="M102.412 50.519C102.412 22.663 79.748 0 51.892 0S1.373 22.663 1.373 50.519s22.663 50.52 50.519 50.52 50.52-22.664 50.52-50.52z" fill="#00cc71"/><g fill="#00ab94"><path d="M305.643 421.625c-24.917 0-45.187 20.271-45.187 45.187 0 24.917 20.271 45.186 45.187 45.186 24.917 0 45.187-20.271 45.187-45.186.001-24.915-20.27-45.187-45.187-45.187zM465.438 361.551c-24.917 0-45.187 20.271-45.187 45.187s20.271 45.186 45.187 45.186c24.917 0 45.187-20.27 45.187-45.186s-20.271-45.187-45.187-45.187z"/></g><path d="M107.648 347.123c-27.856 0-50.52 22.663-50.52 50.519 0 27.856 22.663 50.52 50.52 50.52s50.519-22.663 50.519-50.52c0-27.857-22.663-50.519-50.519-50.519z" fill="#00cc71"/><path d="M351.656 248.919c0 53.856-43.824 97.68-97.68 97.68V151.24c53.856-.002 97.68 43.822 97.68 97.679z" fill="#00ab94"/></svg>