<svg xmlns="http://www.w3.org/2000/svg" version="1.1" x="0" y="0" viewBox="0 0 507.276 507.276" xml:space="preserve" width="512" height="512"><g fill="#4caf50"><path d="M96 194.326h32v-128c0-35.346-28.654-64-64-64s-64 28.654-64 64v128h32v-48h64v48zm-64-80v-48c0-17.673 14.327-32 32-32s32 14.327 32 32v48H32zM288 138.326a55.76 55.76 0 0 0-16.928-40c22.136-21.536 22.621-56.94 1.085-79.075A55.92 55.92 0 0 0 232 2.326h-72v192h72c30.928 0 56-25.072 56-56zm-96-104h40c13.255 0 24 10.745 24 24s-10.745 24-24 24h-40v-48zm0 80h40c13.255 0 24 10.745 24 24s-10.745 24-24 24h-40v-48zM384 194.326c35.346 0 64-28.654 64-64h-32c0 17.673-14.327 32-32 32-17.673 0-32-14.327-32-32v-64c0-17.673 14.327-32 32-32 17.673 0 32 14.327 32 32h32c0-35.346-28.654-64-64-64-35.346 0-64 28.654-64 64v64c0 35.346 28.654 64 64 64zM192 459.702L91.312 359.014l-22.624 22.624L192 504.95l224.8-224.8-22.624-22.624zM462.016 189.668l22.627-22.627 22.628 22.627-22.628 22.627zM439.434 257.542l-22.627-22.628 22.627-22.627 22.628 22.627z"/></g></svg>