<?xml version="1.0" encoding="iso-8859-1"?>
<!-- Generator: Adobe Illustrator 19.0.0, SVG Export Plug-In . SVG Version: 6.00 Build 0)  -->
<svg xmlns="http://www.w3.org/2000/svg" xmlns:xlink="http://www.w3.org/1999/xlink" version="1.1" id="Capa_1" x="0px" y="0px" viewBox="0 0 507.276 507.276" style="enable-background:new 0 0 507.276 507.276;" xml:space="preserve" width="512px" height="512px">
<g>
	<g>
		<g>
			<path d="M96,194.326h32v-128c0-35.346-28.654-64-64-64s-64,28.654-64,64v128h32v-48h64V194.326z M32,114.326v-48     c0-17.673,14.327-32,32-32s32,14.327,32,32v48H32z" fill="#4caf50"/>
			<path d="M288,138.326c-0.004-15.073-6.111-29.503-16.928-40c22.136-21.536,22.621-56.94,1.085-79.075     C261.61,8.411,247.123,2.305,232,2.326h-72v192h72C262.928,194.326,288,169.254,288,138.326z M192,34.326h40     c13.255,0,24,10.745,24,24s-10.745,24-24,24h-40V34.326z M192,114.326h40c13.255,0,24,10.745,24,24s-10.745,24-24,24h-40V114.326     z" fill="#4caf50"/>
			<path d="M384,194.326c35.346,0,64-28.654,64-64h-32c0,17.673-14.327,32-32,32c-17.673,0-32-14.327-32-32v-64     c0-17.673,14.327-32,32-32c17.673,0,32,14.327,32,32h32c0-35.346-28.654-64-64-64c-35.346,0-64,28.654-64,64v64     C320,165.672,348.654,194.326,384,194.326z" fill="#4caf50"/>
			<polygon points="192,459.702 91.312,359.014 68.688,381.638 192,504.95 416.8,280.15 394.176,257.526    " fill="#4caf50"/>
			<rect x="468.648" y="173.666" transform="matrix(0.7071 -0.7071 0.7071 0.7071 7.8359 398.2498)" width="32" height="32" fill="#4caf50"/>
			<rect x="423.434" y="218.909" transform="matrix(-0.7071 -0.7071 0.7071 -0.7071 584.054 711.7424)" width="32" height="32" fill="#4caf50"/>
		</g>
	</g>
</g>
<g>
</g>
<g>
</g>
<g>
</g>
<g>
</g>
<g>
</g>
<g>
</g>
<g>
</g>
<g>
</g>
<g>
</g>
<g>
</g>
<g>
</g>
<g>
</g>
<g>
</g>
<g>
</g>
<g>
</g>
</svg>
