<?xml version="1.0" encoding="iso-8859-1"?>
<!-- Generator: Adobe Illustrator 19.0.0, SVG Export Plug-In . SVG Version: 6.00 Build 0)  -->
<svg version="1.1" id="Capa_1" xmlns="http://www.w3.org/2000/svg" xmlns:xlink="http://www.w3.org/1999/xlink" x="0px" y="0px"
	 viewBox="0 0 511.999 511.999" style="enable-background:new 0 0 511.999 511.999;" xml:space="preserve">
<path style="fill:#00E7F0;" d="M314.994,208.181c3.844,0,7.687-1.466,10.619-4.399l63.134-63.134c5.865-5.865,5.865-15.374,0-21.239
	c-5.864-5.865-15.374-5.865-21.239,0l-63.134,63.134c-5.865,5.865-5.865,15.374,0,21.239
	C307.306,206.715,311.15,208.181,314.994,208.181z"/>
<path style="fill:#51FAFF;" d="M194.38,206.364c3.865,0,7.729-1.483,10.666-4.444c5.84-5.89,5.799-15.399-0.092-21.239L88.782,65.51
	c-5.889-5.84-15.399-5.799-21.239,0.092s-5.799,15.399,0.092,21.239l116.171,115.17C186.736,204.915,190.558,206.364,194.38,206.364
	z"/>
<g>
	<path style="fill:#00E7F0;" d="M287.209,328.093c-1.923-8.069-10.023-13.047-18.092-11.125
		c-8.069,1.923-13.049,10.024-11.125,18.092l25.341,106.264c1.645,6.897,7.803,11.538,14.596,11.538
		c1.153,0,2.325-0.134,3.496-0.414c8.069-1.923,13.049-10.024,11.125-18.092L287.209,328.093z"/>
	<path style="fill:#00E7F0;" d="M451.029,373.268l-112.977-96.274c-6.313-5.379-15.791-4.625-21.172,1.69
		c-5.38,6.313-4.623,15.792,1.69,21.172l112.977,96.274c2.827,2.409,6.289,3.587,9.735,3.587c4.246,0,8.467-1.792,11.438-5.277
		C458.098,388.127,457.341,378.647,451.029,373.268z"/>
</g>
<path style="fill:#51FAFF;" d="M185.818,297.572l-63.134,63.134c-5.865,5.865-5.865,15.374,0,21.239
	c2.933,2.933,6.776,4.399,10.619,4.399s7.687-1.466,10.619-4.399l63.134-63.134c5.865-5.865,5.865-15.374,0-21.239
	C201.193,291.706,191.684,291.706,185.818,297.572z"/>
<path style="fill:#00CC71;" d="M351.656,248.919c0,53.856-43.824,97.68-97.68,97.68s-97.68-43.824-97.68-97.68
	s43.824-97.68,97.68-97.68S351.656,195.062,351.656,248.919z"/>
<path style="fill:#00AB94;" d="M454.304,103.712c0-27.856-22.663-50.52-50.519-50.52s-50.519,22.663-50.519,50.52
	s22.663,50.519,50.519,50.519S454.304,131.568,454.304,103.712z"/>
<path style="fill:#00CC71;" d="M102.412,50.519C102.412,22.663,79.748,0,51.892,0S1.373,22.663,1.373,50.519
	s22.663,50.52,50.519,50.52S102.412,78.375,102.412,50.519z"/>
<g>
	<path style="fill:#00AB94;" d="M305.643,421.625c-24.917,0-45.187,20.271-45.187,45.187c0,24.917,20.271,45.186,45.187,45.186
		c24.917,0,45.187-20.271,45.187-45.186C350.831,441.897,330.56,421.625,305.643,421.625z"/>
	<path style="fill:#00AB94;" d="M465.438,361.551c-24.917,0-45.187,20.271-45.187,45.187s20.271,45.186,45.187,45.186
		c24.917,0,45.187-20.27,45.187-45.186S490.354,361.551,465.438,361.551z"/>
</g>
<path style="fill:#00CC71;" d="M107.648,347.123c-27.856,0-50.52,22.663-50.52,50.519c0,27.856,22.663,50.52,50.52,50.52
	s50.519-22.663,50.519-50.52C158.167,369.785,135.504,347.123,107.648,347.123z"/>
<path style="fill:#00AB94;" d="M351.656,248.919c0,53.856-43.824,97.68-97.68,97.68V151.24
	C307.832,151.238,351.656,195.062,351.656,248.919z"/>
<g>
</g>
<g>
</g>
<g>
</g>
<g>
</g>
<g>
</g>
<g>
</g>
<g>
</g>
<g>
</g>
<g>
</g>
<g>
</g>
<g>
</g>
<g>
</g>
<g>
</g>
<g>
</g>
<g>
</g>
</svg>
