<?xml version="1.0" encoding="iso-8859-1"?>
<!-- Generator: Adobe Illustrator 19.0.0, SVG Export Plug-In . SVG Version: 6.00 Build 0)  -->
<svg version="1.1" id="Capa_1" xmlns="http://www.w3.org/2000/svg" xmlns:xlink="http://www.w3.org/1999/xlink" x="0px" y="0px"
	 viewBox="0 0 512 512" style="enable-background:new 0 0 512 512;" xml:space="preserve">
<g>
	<g>
		<path style="fill:#BDC3C7;" d="M255.979,34.133c-4.713,0-8.533,3.821-8.533,8.533v42.667c0,4.713,3.821,8.533,8.533,8.533
			c4.713,0,8.533-3.821,8.533-8.533V42.667C264.513,37.954,260.692,34.133,255.979,34.133z"/>
		<path style="fill:#BDC3C7;" d="M255.979,418.133c-4.713,0-8.533,3.82-8.533,8.533v42.667c0,4.713,3.821,8.533,8.533,8.533
			c4.713,0,8.533-3.821,8.533-8.533v-42.667C264.513,421.954,260.692,418.133,255.979,418.133z"/>
		<path style="fill:#BDC3C7;" d="M78.606,138.897c-3.923-2.581-9.193-1.508-11.794,2.401c-2.601,3.909-1.556,9.185,2.339,11.807
			l34.219,22.784c3.923,2.581,9.193,1.508,11.794-2.401c2.601-3.909,1.556-9.185-2.339-11.807L78.606,138.897z"/>
		<path style="fill:#BDC3C7;" d="M403.871,177.323c1.683-0.001,3.327-0.5,4.727-1.434l34.219-22.784
			c3.923-2.616,4.984-7.917,2.368-11.84c-2.616-3.923-7.917-4.984-11.84-2.368l-34.21,22.784c-3.137,2.083-4.537,5.977-3.446,9.581
			C396.78,174.866,400.105,177.329,403.871,177.323z"/>
		<path style="fill:#BDC3C7;" d="M103.369,336.111l-34.219,22.784c-3.895,2.622-4.94,7.898-2.339,11.807
			c2.601,3.909,7.872,4.982,11.794,2.401l34.219-22.784c3.895-2.622,4.94-7.898,2.339-11.807
			C112.562,334.603,107.292,333.53,103.369,336.111z"/>
		<path style="fill:#BDC3C7;" d="M408.598,336.111c-3.923-2.613-9.222-1.551-11.836,2.372c-2.613,3.923-1.551,9.222,2.372,11.836
			l34.21,22.784c2.538,1.692,5.786,1.901,8.52,0.55c2.734-1.352,4.54-4.06,4.736-7.104c0.196-3.044-1.246-5.961-3.784-7.654
			L408.598,336.111z"/>
		<path style="fill:#BDC3C7;" d="M222.128,128.956l-60.237,34.475c-2.672,1.5-4.335,4.319-4.355,7.384
			c-0.02,3.065,1.604,5.905,4.256,7.441c2.652,1.536,5.924,1.532,8.573-0.011l60.237-34.475c2.673-1.5,4.335-4.319,4.355-7.384
			c0.02-3.065-1.604-5.905-4.256-7.441C228.048,127.409,224.776,127.413,222.128,128.956z"/>
		<path style="fill:#BDC3C7;" d="M230.601,368.23l-60.237-34.475c-2.648-1.543-5.92-1.547-8.573-0.011
			c-2.652,1.536-4.277,4.376-4.256,7.441c0.02,3.065,1.683,5.883,4.355,7.384l60.237,34.475c2.648,1.543,5.92,1.547,8.573,0.011
			c2.652-1.536,4.277-4.376,4.256-7.441C234.936,372.549,233.274,369.731,230.601,368.23z"/>
		<path style="fill:#BDC3C7;" d="M375.446,213.333c-4.713,0-8.533,3.821-8.533,8.533v68.267c0,4.713,3.821,8.533,8.533,8.533
			c4.713,0,8.533-3.821,8.533-8.533v-68.267C383.979,217.154,380.159,213.333,375.446,213.333z"/>
		<path style="fill:#BDC3C7;" d="M350.068,163.43l-60.237-34.475c-2.648-1.543-5.92-1.547-8.573-0.011
			c-2.652,1.536-4.277,4.376-4.256,7.441c0.02,3.065,1.683,5.883,4.355,7.384l60.237,34.475c2.648,1.543,5.92,1.547,8.573,0.011
			s4.277-4.376,4.256-7.441C354.403,167.749,352.74,164.931,350.068,163.43z"/>
		<path style="fill:#BDC3C7;" d="M341.594,333.756l-60.237,34.475c-2.672,1.5-4.335,4.319-4.355,7.384
			c-0.02,3.065,1.604,5.905,4.256,7.441c2.652,1.536,5.924,1.532,8.573-0.011l60.237-34.475c2.672-1.5,4.335-4.319,4.355-7.384
			s-1.604-5.905-4.256-7.441S344.243,332.213,341.594,333.756z"/>
		<path style="fill:#BDC3C7;" d="M136.513,213.333c-4.713,0-8.533,3.821-8.533,8.533v68.267c0,4.713,3.821,8.533,8.533,8.533
			s8.533-3.821,8.533-8.533v-68.267C145.046,217.154,141.226,213.333,136.513,213.333z"/>
	</g>
	<circle style="fill:#26B99A;" cx="255.979" cy="119.467" r="34.133"/>
	<path style="fill:#65DDB9;" d="M247.446,119.364c-3.467,0.02-6.601-2.059-7.931-5.261c-1.329-3.202-0.59-6.89,1.872-9.331
		c3.346-3.346,8.771-3.346,12.117,0c3.346,3.346,3.346,8.771,0,12.117C251.867,118.445,249.704,119.328,247.446,119.364z"/>
	<circle style="fill:#F0C419;" cx="136.513" cy="187.733" r="34.133"/>
	<path style="fill:#F9EAB0;" d="M127.979,187.836c-4.022-0.04-7.458-2.911-8.213-6.861c-0.755-3.951,1.38-7.886,5.103-9.407
		c3.724-1.521,8.003-0.206,10.23,3.144c2.227,3.35,1.783,7.805-1.061,10.649C132.402,186.919,130.238,187.803,127.979,187.836z"/>
	<circle style="fill:#F0C419;" cx="375.446" cy="187.733" r="34.133"/>
	<path style="fill:#F9EAB0;" d="M366.913,187.733c-4.022-0.04-7.458-2.911-8.213-6.861c-0.755-3.951,1.38-7.886,5.103-9.407
		c3.724-1.521,8.003-0.206,10.23,3.144c2.227,3.35,1.783,7.805-1.061,10.649C371.335,186.817,369.172,187.7,366.913,187.733z"/>
	<circle style="fill:#26B99A;" cx="375.446" cy="324.267" r="34.133"/>
	<path style="fill:#65DDB9;" d="M366.913,324.164c-3.467,0.02-6.601-2.059-7.931-5.261c-1.329-3.202-0.59-6.89,1.872-9.331
		c3.346-3.346,8.771-3.346,12.117,0c3.346,3.346,3.346,8.771,0,12.117C371.333,323.245,369.171,324.128,366.913,324.164z"/>
	<circle style="fill:#F0C419;" cx="255.979" cy="392.533" r="34.133"/>
	<path style="fill:#F9EAB0;" d="M247.446,392.533c-4.022-0.04-7.458-2.911-8.213-6.861c-0.755-3.951,1.38-7.886,5.103-9.407
		c3.724-1.521,8.003-0.206,10.23,3.144c2.227,3.35,1.783,7.805-1.061,10.649C251.869,391.617,249.705,392.5,247.446,392.533z"/>
	<circle style="fill:#26B99A;" cx="136.513" cy="324.267" r="34.133"/>
	<path style="fill:#65DDB9;" d="M127.979,324.164c-3.467,0.02-6.601-2.059-7.931-5.261c-1.329-3.202-0.59-6.89,1.872-9.331
		c2.165-2.165,5.319-3.01,8.276-2.218c2.957,0.792,5.266,3.102,6.059,6.059c0.792,2.957-0.053,6.112-2.218,8.276
		C132.4,323.245,130.238,324.128,127.979,324.164z"/>
	<path style="fill:#F0C419;" d="M281.579,25.6c-0.063,12.14-8.645,22.566-20.546,24.963c-11.901,2.397-23.849-3.895-28.606-15.064
		c-1.381-3.116-2.079-6.491-2.048-9.899c0-14.138,11.462-25.6,25.6-25.6C270.118,0,281.579,11.462,281.579,25.6z"/>
	<g>
		<path style="fill:#26B99A;" d="M281.579,486.4c0,14.138-11.461,25.6-25.6,25.6c-14.138,0-25.6-11.461-25.6-25.6
			c-0.022-3.407,0.676-6.78,2.048-9.899c4.758-11.169,16.705-17.461,28.606-15.064C272.935,463.834,281.516,474.26,281.579,486.4z"
			/>
		<path style="fill:#26B99A;" d="M79.339,153.003c-9.094,10.819-25.234,12.222-36.058,3.134s-12.236-25.227-3.154-36.056
			s25.221-12.249,36.054-3.174C86.943,126.043,88.351,142.137,79.339,153.003z"/>
		<path style="fill:#26B99A;" d="M477.761,138.752c-0.593,6.771-3.846,13.031-9.045,17.408c-4.607,3.882-10.445,5.999-16.469,5.973
			c-0.741,0.013-1.481-0.016-2.219-0.085c-6.768-0.586-13.026-3.837-17.395-9.039c-4.369-5.202-6.492-11.927-5.901-18.694
			c0.243-2.519,0.847-4.991,1.792-7.339c4.751-11.737,17.369-18.237,29.684-15.292C470.523,114.629,478.834,126.135,477.761,138.752
			z"/>
	</g>
	<g>
		<path style="fill:#F0C419;" d="M76.182,395.093c-10.834,9.076-26.973,7.655-36.054-3.174c-9.082-10.829-7.67-26.969,3.154-36.056
			c10.824-9.088,26.964-7.685,36.058,3.134c4.373,5.203,6.498,11.932,5.906,18.703C84.653,384.471,81.392,390.729,76.182,395.093z"
			/>
		<path style="fill:#F0C419;" d="M477.761,373.248c0.591,6.768-1.531,13.493-5.901,18.694c-4.369,5.202-10.627,8.453-17.395,9.039
			c-0.737,0.069-1.478,0.098-2.219,0.085c-6.025,0.025-11.862-2.092-16.469-5.973c-2.936-2.951-5.385-6.35-7.253-10.069
			l-1.792-7.339c-0.591-6.768,1.531-13.493,5.901-18.694c4.369-5.202,10.627-8.453,17.395-9.039
			c0.737-0.069,1.478-0.098,2.219-0.085C465.529,349.861,476.61,360.015,477.761,373.248z"/>
	</g>
</g>
<g>
</g>
<g>
</g>
<g>
</g>
<g>
</g>
<g>
</g>
<g>
</g>
<g>
</g>
<g>
</g>
<g>
</g>
<g>
</g>
<g>
</g>
<g>
</g>
<g>
</g>
<g>
</g>
<g>
</g>
</svg>
