<?xml version="1.0" encoding="iso-8859-1"?>
<!-- Generator: Adobe Illustrator 19.0.0, SVG Export Plug-In . SVG Version: 6.00 Build 0)  -->
<svg xmlns="http://www.w3.org/2000/svg" xmlns:xlink="http://www.w3.org/1999/xlink" version="1.1" id="Layer_1" x="0px" y="0px" viewBox="0 0 512 512" style="enable-background:new 0 0 512 512;" xml:space="preserve" width="512px" height="512px">
<g>
	<g>
		<g>
			<path d="M138.667,298.667c-5.896,0-10.667,4.771-10.667,10.667v32h-21.333v-32c0-5.896-4.771-10.667-10.667-10.667     s-10.667,4.771-10.667,10.667v85.333c0,5.896,4.771,10.667,10.667,10.667s10.667-4.771,10.667-10.667v-32H128v32     c0,5.896,4.771,10.667,10.667,10.667c5.896,0,10.667-4.771,10.667-10.667v-85.333     C149.333,303.438,144.563,298.667,138.667,298.667z" fill="#91DC5A"/>
			<path d="M416,298.667c-5.896,0-10.667,4.771-10.667,10.667v32H384v-32c0-5.896-4.771-10.667-10.667-10.667     c-5.896,0-10.667,4.771-10.667,10.667v85.333c0,5.896,4.771,10.667,10.667,10.667c5.896,0,10.667-4.771,10.667-10.667v-32h21.333     v32c0,5.896,4.771,10.667,10.667,10.667c5.896,0,10.667-4.771,10.667-10.667v-85.333     C426.667,303.438,421.896,298.667,416,298.667z" fill="#91DC5A"/>
			<path d="M256,128c-11.76,0-21.333,9.573-21.333,21.333V192c0,11.76,9.573,21.333,21.333,21.333s21.333-9.573,21.333-21.333     v-42.667C277.333,137.573,267.76,128,256,128z" fill="#91DC5A"/>
			<path d="M447.652,227.813C444.001,125.137,359.551,42.667,256,42.667c-104.547,0-189.693,84.043-191.802,188.095     C25.098,253.281,0,294.921,0,341.333c0,70.583,57.417,128,128,128c38.424,0,73.473-17.328,97.268-45.385     c10.263,1.672,20.57,2.719,30.732,2.719c11.432,0,23.072-1.329,34.699-3.477c23.801,28.513,59.152,46.143,97.926,46.143     c70.583,0,123.375-57.417,123.375-128C512,292.982,489.595,249.557,447.652,227.813z M128,426.667     c-47.052,0-85.333-38.281-85.333-85.333c0-33.75,19.521-63.844,50.042-77.646c54.479,16.625,96.313,58.458,112.938,112.927     C191.833,407.146,161.75,426.667,128,426.667z M298.667,192c0,23.531-19.135,42.667-42.667,42.667S213.333,215.531,213.333,192     v-42.667c0-23.531,19.135-42.667,42.667-42.667s42.667,19.135,42.667,42.667V192z M388.625,426.667     c-33.75,0-63.833-19.531-77.646-50.052c16.625-54.469,58.458-96.302,112.927-112.927c30.521,13.813,50.052,43.896,50.052,77.646     C473.958,388.385,435.677,426.667,388.625,426.667z" fill="#91DC5A"/>
		</g>
	</g>
</g>
<g>
</g>
<g>
</g>
<g>
</g>
<g>
</g>
<g>
</g>
<g>
</g>
<g>
</g>
<g>
</g>
<g>
</g>
<g>
</g>
<g>
</g>
<g>
</g>
<g>
</g>
<g>
</g>
<g>
</g>
</svg>
