<?xml version="1.0" encoding="iso-8859-1"?>
<!-- Generator: Adobe Illustrator 19.0.0, SVG Export Plug-In . SVG Version: 6.00 Build 0)  -->
<svg version="1.1" id="Capa_1" xmlns="http://www.w3.org/2000/svg" xmlns:xlink="http://www.w3.org/1999/xlink" x="0px" y="0px"
	 viewBox="0 0 511.984 511.984" style="enable-background:new 0 0 511.984 511.984;" xml:space="preserve">
<path style="fill:#E6E9ED;" d="M255.992,407.948v-57.42V87.958v-8c-19.999-24-227.993-16-227.993-16v16v327.99
	c0,0,207.994-7.999,227.993,16V407.948z"/>
<path style="fill:#5D9CEC;" d="M255.992,423.948c-19.999-23.999-227.993-16-227.993-16V79.958H12c-4.477,0-8,3.516-8,8
	c0,4.555,0,8,0,8v327.99c0,4.476,3.602,7.999,8,7.999h216.876c0,0,15.516,8,27.116,8V423.948z"/>
<g style="opacity:0.4;">
	<path style="fill:#FFFFFF;" d="M12,423.948V95.958c0,0,0-3.445,0-8c0-4.484,3.523-8,8-8h-8c-4.477,0-8,3.516-8,8c0,4.555,0,8,0,8
		v327.99c0,4.476,3.602,7.999,8,7.999h8C15.601,431.947,12,428.424,12,423.948z"/>
</g>
<path style="fill:#E6E9ED;" d="M255.992,423.948c20-23.999,227.994-16,227.994-16V79.958v-16c0,0-207.994-8-227.994,16v8v262.57
	v57.42V423.948z"/>
<path style="fill:#5D9CEC;" d="M255.992,423.948c20-23.999,227.994-16,227.994-16V79.958h15.999c4.477,0,7.999,3.516,7.999,8
	c0,4.555,0,8,0,8v327.99c0,4.476-3.601,7.999-7.999,7.999H283.109c0,0-15.516,8-27.117,8V423.948z"/>
<g style="opacity:0.2;">
	<path d="M499.985,423.948V95.958c0,0,0-3.445,0-8c0-4.484-3.523-8-8-8h8c4.477,0,7.999,3.516,7.999,8c0,4.555,0,8,0,8v327.99
		c0,4.476-3.601,7.999-7.999,7.999h-8C496.384,431.947,499.985,428.424,499.985,423.948z"/>
</g>
<path style="fill:#AC92EC;" d="M155.995,216.032c0,6.641-5.358,12-11.999,12s-12-5.359-12-12c0-6.64,5.359-12,12-12
	S155.995,209.392,155.995,216.032z"/>
<g style="opacity:0.3;">
	<path style="fill:#FFFFFF;" d="M139.996,216.032c0-5.226,3.344-9.617,8-11.265c-1.258-0.445-2.586-0.734-4-0.734
		c-6.641,0-12,5.359-12,12s5.359,12,12,12c1.414,0,2.742-0.289,4-0.734C143.34,225.649,139.996,221.259,139.996,216.032z"/>
</g>
<g style="opacity:0.2;">
	<path d="M147.996,216.032c0,5.227-3.344,9.617-8,11.266c1.258,0.445,2.586,0.734,4,0.734c6.641,0,11.999-5.359,11.999-12
		c0-6.64-5.358-12-11.999-12c-1.414,0-2.742,0.289-4,0.734C144.652,206.415,147.996,210.806,147.996,216.032z"/>
</g>
<polygon style="fill:#ED5565;" points="307.991,455.947 299.991,448.025 291.992,455.947 291.992,56.037 307.991,56.037 "/>
<path style="fill:#FFFFFF;" d="M35.999,63.693c-5.062,0.156-8,0.266-8,0.266v16v327.99c0,0,2.938-0.109,8-0.266V63.693z"/>
<g style="opacity:0.2;">
	<path d="M475.986,63.693c5.062,0.156,8,0.266,8,0.266v16v327.99c0,0-2.938-0.109-8-0.266V63.693z"/>
</g>
<g style="opacity:0.2;">
	<rect x="307.992" y="66.512" width="7.977" height="343.26"/>
</g>
<g style="opacity:0.2;">
	<rect x="284.012" y="68.432" width="7.977" height="343.99"/>
</g>
<g style="opacity:0.3;">
	<polygon style="fill:#FFFFFF;" points="299.991,56.037 291.992,56.037 291.992,455.947 299.991,448.025 	"/>
</g>
<g>
	<path style="fill:#3A3847;" d="M143.996,232.032c-8.82,0-16-7.18-16-16c0-8.82,7.18-15.999,16-15.999s15.999,7.179,15.999,15.999
		C159.995,224.852,152.816,232.032,143.996,232.032z M143.996,208.033c-4.414,0-8,3.586-8,8s3.586,8,8,8s8-3.586,8-8
		C151.996,211.618,148.41,208.033,143.996,208.033z"/>
	<path style="fill:#3A3847;" d="M143.996,248.031h-3.758c-2.211,0-4-1.789-4-4c0-2.21,1.789-4,4-4h3.758
		c42.429,0,71.998-12.648,71.998-24c0-11.351-29.569-23.999-71.998-23.999h-4c-2.211,0-4-1.789-4-4s1.789-4,4-4h4
		c38.78,0,79.997,11.219,79.997,31.999C223.993,236.813,182.776,248.031,143.996,248.031z"/>
	<path style="fill:#3A3847;" d="M91.92,240.43c-0.438,0-0.875-0.07-1.312-0.219c-17.156-5.968-26.609-14.554-26.609-24.179
		c0-9.726,9.484-18.319,26.711-24.187c2.085-0.688,4.358,0.406,5.077,2.5c0.711,2.094-0.406,4.367-2.5,5.078
		c-13.327,4.539-21.288,10.75-21.288,16.608c0,5.781,7.938,12,21.233,16.617c2.086,0.727,3.188,3.008,2.469,5.093
		C95.122,239.399,93.575,240.43,91.92,240.43z"/>
	<path style="fill:#3A3847;" d="M169.354,232.032c-0.672,0-1.352-0.172-1.977-0.523c-1.922-1.094-2.594-3.531-1.5-5.453
		c4.422-7.781,8.219-15.679,11.273-23.483c0.805-2.062,3.109-3.062,5.188-2.266c2.055,0.805,3.07,3.125,2.266,5.187
		c-3.195,8.156-7.156,16.406-11.773,24.515C172.096,231.305,170.745,232.032,169.354,232.032z"/>
	<path style="fill:#3A3847;" d="M111.911,287.366c-3.312,0-5.914-0.875-7.906-2.023c-4.695-2.727-10.047-9.358-8.961-25.577
		c1.219-16.726,8.961-38.491,21.25-59.732c6.172-10.703,13.319-20.875,20.671-29.405c18.453-21.273,36.015-30.195,47.015-23.906
		c8.14,4.742,10.882,16.273,7.96,33.342c-0.375,2.188-2.477,3.633-4.616,3.273c-2.18-0.375-3.641-2.445-3.273-4.617
		c2.242-13.117,0.758-22.257-4.07-25.078c-5.875-3.383-19.602,2.195-36.96,22.21c-7.023,8.156-13.875,17.898-19.796,28.179
		c-11.539,19.937-19.086,40.983-20.195,56.288c-0.633,9.43,1.133,15.866,4.977,18.093c4.414,2.547,12.273-0.094,21.554-7.233
		c1.742-1.336,4.25-1.023,5.609,0.734c1.344,1.75,1.016,4.257-0.734,5.608C124.738,284.983,117.364,287.366,111.911,287.366z"/>
	<path style="fill:#3A3847;" d="M107.114,208.033c-1.602,0-3.109-0.969-3.727-2.547c-11.437-29.358-11.203-51.874,0.594-58.748
		c5.328-3.062,14.914-4.195,30.468,7.898c1.742,1.352,2.062,3.867,0.703,5.609c-1.359,1.75-3.883,2.055-5.609,0.703
		c-9.265-7.195-17.108-9.867-21.554-7.289c-6.344,3.703-8.18,20.601,2.852,48.921c0.805,2.062-0.219,4.375-2.273,5.179
		C108.091,207.947,107.598,208.033,107.114,208.033z"/>
	<path style="fill:#3A3847;" d="M176.003,287.397c-18.109,0-42.991-26.397-59.709-55.365c-0.398-0.633-0.859-1.469-1.234-2.211
		c-0.984-1.977-0.188-4.375,1.789-5.367s4.375-0.188,5.367,1.789c0.266,0.539,0.602,1.141,0.938,1.68
		c21.249,36.812,47.006,56.092,56.857,50.475c3.82-2.211,5.586-8.647,4.953-18.101c-0.148-2.203,1.523-4.109,3.726-4.258
		c2.039-0.156,4.117,1.516,4.258,3.727c1.086,16.219-4.266,22.851-8.944,25.569C181.542,286.741,178.854,287.397,176.003,287.397z"
		/>
	<path style="fill:#3A3847;" d="M219.993,332.029H67.998c-2.211,0-4-1.789-4-4s1.789-4,4-4h151.995c2.211,0,4,1.789,4,4
		S222.204,332.029,219.993,332.029z"/>
	<path style="fill:#3A3847;" d="M187.994,348.028H99.997c-2.211,0-4-1.789-4-4s1.789-4,4-4h87.997c2.211,0,4,1.789,4,4
		S190.205,348.028,187.994,348.028z"/>
	<path style="fill:#3A3847;" d="M443.986,132.035H323.99c-2.211,0-4-1.789-4-4c0-2.211,1.789-4,4-4h119.996c2.211,0,4,1.789,4,4
		C447.986,130.246,446.197,132.035,443.986,132.035z"/>
	<path style="fill:#3A3847;" d="M443.986,156.034H323.99c-2.211,0-4-1.789-4-4s1.789-4,4-4h119.996c2.211,0,4,1.789,4,4
		S446.197,156.034,443.986,156.034z"/>
	<path style="fill:#3A3847;" d="M443.986,180.033H323.99c-2.211,0-4-1.789-4-4s1.789-4,4-4h119.996c2.211,0,4,1.789,4,4
		S446.197,180.033,443.986,180.033z"/>
	<path style="fill:#3A3847;" d="M443.986,204.033H323.99c-2.211,0-4-1.789-4-4s1.789-4,4-4h119.996c2.211,0,4,1.789,4,4
		S446.197,204.033,443.986,204.033z"/>
	<path style="fill:#3A3847;" d="M443.986,228.032H323.99c-2.211,0-4-1.789-4-4s1.789-4,4-4h119.996c2.211,0,4,1.789,4,4
		S446.197,228.032,443.986,228.032z"/>
	<path style="fill:#3A3847;" d="M443.986,252.031H323.99c-2.211,0-4-1.789-4-4s1.789-4,4-4h119.996c2.211,0,4,1.789,4,4
		S446.197,252.031,443.986,252.031z"/>
	<path style="fill:#3A3847;" d="M443.986,276.03H323.99c-2.211,0-4-1.788-4-3.999s1.789-4,4-4h119.996c2.211,0,4,1.789,4,4
		S446.197,276.03,443.986,276.03z"/>
	<path style="fill:#3A3847;" d="M443.986,300.029H323.99c-2.211,0-4-1.788-4-3.999s1.789-4,4-4h119.996c2.211,0,4,1.789,4,4
		S446.197,300.029,443.986,300.029z"/>
	<path style="fill:#3A3847;" d="M443.986,324.029H323.99c-2.211,0-4-1.789-4-4s1.789-4,4-4h119.996c2.211,0,4,1.789,4,4
		S446.197,324.029,443.986,324.029z"/>
	<path style="fill:#3A3847;" d="M443.986,348.028H323.99c-2.211,0-4-1.789-4-4s1.789-4,4-4h119.996c2.211,0,4,1.789,4,4
		S446.197,348.028,443.986,348.028z"/>
	<path style="fill:#3A3847;" d="M291.992,459.947c-2.211,0-4-1.789-4-4V56.037c0-2.211,1.789-4,4-4c2.21,0,3.999,1.789,3.999,4
		v399.91C295.991,458.158,294.202,459.947,291.992,459.947z"/>
	<path style="fill:#3A3847;" d="M307.991,459.947c-2.211,0-4-1.789-4-4V56.037c0-2.211,1.789-4,4-4s4,1.789,4,4v399.91
		C311.991,458.158,310.202,459.947,307.991,459.947z"/>
	<path style="fill:#3A3847;" d="M307.991,60.037h-15.999c-2.211,0-4-1.789-4-4s1.789-4,4-4h15.999c2.211,0,4,1.789,4,4
		S310.202,60.037,307.991,60.037z"/>
	<path style="fill:#3A3847;" d="M291.992,459.947c-1.031,0-2.062-0.398-2.844-1.188c-1.555-1.57-1.539-4.102,0.031-5.656
		l7.999-7.922c1.57-1.562,4.102-1.539,5.656,0.031s1.539,4.102-0.031,5.656l-8,7.922
		C294.022,459.564,293.007,459.947,291.992,459.947z"/>
	<path style="fill:#3A3847;" d="M307.991,459.947c-1.016,0-2.031-0.383-2.812-1.156l-8-7.922c-1.57-1.555-1.586-4.086-0.031-5.656
		c1.547-1.57,4.078-1.594,5.656-0.031l8,7.922c1.57,1.555,1.586,4.086,0.031,5.656C310.054,459.549,309.022,459.947,307.991,459.947
		z"/>
	<path style="fill:#3A3847;" d="M27.999,411.948c-2.21,0-3.999-1.789-3.999-4V63.959c0-2.211,1.789-4,3.999-4c2.211,0,4,1.789,4,4
		v343.989C31.999,410.159,30.21,411.948,27.999,411.948z"/>
	<path style="fill:#3A3847;" d="M255.992,427.948c-1.141,0-2.281-0.492-3.07-1.438c-13.655-16.383-145.112-17.633-224.767-14.562
		c-0.055,0-0.109,0-0.156,0c-2.14,0-3.913-1.688-3.999-3.844c-0.078-2.211,1.641-4.07,3.844-4.155
		c21.499-0.82,210.563-7.359,231.219,17.437c1.414,1.695,1.188,4.219-0.508,5.633C257.804,427.643,256.898,427.948,255.992,427.948z
		"/>
	<path style="fill:#3A3847;" d="M255.992,83.958c-1.141,0-2.281-0.492-3.07-1.438C239.267,66.13,107.81,64.872,28.155,67.958
		c-0.055,0-0.109,0-0.156,0c-2.14,0-3.913-1.688-3.999-3.844c-0.078-2.211,1.641-4.07,3.844-4.156
		c21.499-0.828,210.563-7.359,231.219,17.437c1.414,1.695,1.188,4.219-0.508,5.633C257.804,83.654,256.898,83.958,255.992,83.958z"
		/>
	<path style="fill:#3A3847;" d="M4,427.948c-2.211,0-4-1.789-4-4V95.958c0-2.211,1.789-4,4-4s4,1.789,4,4v327.99
		C8,426.159,6.211,427.948,4,427.948z"/>
	<path style="fill:#3A3847;" d="M255.992,443.947c-10.913,0-24.46-6.242-28.062-8H12c-2.211,0-4-1.789-4-4s1.789-3.999,4-3.999
		h216.876c0.633,0,1.266,0.155,1.828,0.444c0.148,0.07,14.812,7.555,25.288,7.555c2.211,0,4,1.789,4,4
		S258.203,443.947,255.992,443.947z"/>
	<path style="fill:#3A3847;" d="M255.992,411.948c-2.211,0-4-1.789-4-4V87.958c0-2.211,1.789-4,4-4s4,1.789,4,4v319.99
		C259.992,410.159,258.203,411.948,255.992,411.948z"/>
	<path style="fill:#3A3847;" d="M4,99.958c-2.211,0-4-1.789-4-4v-8c0-6.726,5.273-11.999,12-11.999c2.211,0,4,1.789,4,4
		s-1.789,4-4,4c-2.281,0-4,1.718-4,4v8C8,98.169,6.211,99.958,4,99.958z"/>
	<path style="fill:#3A3847;" d="M12,435.947c-6.617,0-12-5.383-12-11.999c0-2.211,1.789-4,4-4s4,1.789,4,4c0,2.242,1.758,4,4,4
		c2.211,0,4,1.788,4,3.999S14.211,435.947,12,435.947z"/>
	<path style="fill:#3A3847;" d="M27.999,83.958H12c-2.211,0-4-1.789-4-4s1.789-4,4-4h15.999c2.211,0,4,1.789,4,4
		S30.21,83.958,27.999,83.958z"/>
	<path style="fill:#3A3847;" d="M483.986,411.948c-2.211,0-4-1.789-4-4V63.959c0-2.211,1.789-4,4-4c2.21,0,3.999,1.789,3.999,4
		v343.989C487.985,410.159,486.196,411.948,483.986,411.948z"/>
	<path style="fill:#3A3847;" d="M255.992,427.948c-0.914,0-1.836-0.312-2.586-0.953c-1.687-1.43-1.89-3.953-0.461-5.633
		c2.734-3.227,7.547-5.828,14.703-7.969c6.141-1.914,14.156-3.578,23.789-4.93c2.124-0.305,4.202,1.211,4.515,3.406
		c0.305,2.188-1.219,4.211-3.406,4.516c-9.194,1.297-16.788,2.859-22.569,4.664c-7.32,2.18-9.992,4.375-10.938,5.484
		C258.25,427.471,257.125,427.948,255.992,427.948z"/>
	<path style="fill:#3A3847;" d="M307.983,414.503c-2.031,0-3.766-1.539-3.977-3.609c-0.211-2.195,1.391-4.156,3.594-4.375
		c67.334-6.663,175.448-2.616,176.541-2.569c2.203,0.085,3.922,1.944,3.844,4.155c-0.086,2.211-1.727,3.836-4.155,3.844
		c-1.086-0.047-108.653-4.086-175.448,2.539C308.249,414.495,308.116,414.503,307.983,414.503z"/>
	<path style="fill:#3A3847;" d="M255.992,83.958c-0.914,0-1.828-0.312-2.586-0.945c-1.679-1.43-1.897-3.953-0.469-5.641
		c4.836-5.718,17.43-9.937,38.5-12.898c2.124-0.273,4.202,1.211,4.515,3.406c0.305,2.188-1.219,4.211-3.406,4.516
		c-25.522,3.586-31.929,8.289-33.499,10.148C258.258,83.474,257.125,83.958,255.992,83.958z"/>
	<path style="fill:#3A3847;" d="M307.983,70.513c-2.031,0-3.766-1.539-3.977-3.609c-0.211-2.195,1.391-4.156,3.594-4.375
		c67.334-6.664,175.448-2.609,176.541-2.57c2.203,0.086,3.922,1.945,3.844,4.156c-0.086,2.203-1.727,4.031-4.155,3.844
		c-1.086-0.047-108.653-4.094-175.448,2.539C308.249,70.506,308.116,70.513,307.983,70.513z"/>
	<path style="fill:#3A3847;" d="M507.984,427.948c-2.21,0-3.999-1.789-3.999-4V95.958c0-2.211,1.789-4,3.999-4c2.211,0,4,1.789,4,4
		v327.99C511.984,426.159,510.195,427.948,507.984,427.948z"/>
	<path style="fill:#3A3847;" d="M255.992,443.947c-2.211,0-4-1.789-4-4s1.789-4,4-4c10.508,0,25.141-7.477,25.281-7.555
		c0.57-0.289,1.195-0.444,1.836-0.444h8.883c2.21,0,3.999,1.788,3.999,3.999s-1.789,4-3.999,4h-7.938
		C280.453,437.705,266.906,443.947,255.992,443.947z"/>
	<path style="fill:#3A3847;" d="M499.985,435.947H307.991c-2.211,0-4-1.789-4-4s1.789-3.999,4-3.999h191.994
		c2.211,0,4,1.788,4,3.999S502.196,435.947,499.985,435.947z"/>
	<path style="fill:#3A3847;" d="M507.984,99.958c-2.21,0-3.999-1.789-3.999-4v-8c0-2.281-1.719-4-4-4c-2.211,0-4-1.789-4-4
		s1.789-4,4-4c6.727,0,11.999,5.273,11.999,11.999v8C511.984,98.169,510.195,99.958,507.984,99.958z"/>
	<path style="fill:#3A3847;" d="M499.985,435.947c-2.211,0-4-1.789-4-4s1.789-3.999,4-3.999c2.242,0,4-1.758,4-4
		c0-2.211,1.789-4,3.999-4c2.211,0,4,1.789,4,4C511.984,430.564,506.602,435.947,499.985,435.947z"/>
	<path style="fill:#3A3847;" d="M499.985,83.958h-15.999c-2.211,0-4-1.789-4-4s1.789-4,4-4h15.999c2.211,0,4,1.789,4,4
		S502.196,83.958,499.985,83.958z"/>
</g>
<g>
</g>
<g>
</g>
<g>
</g>
<g>
</g>
<g>
</g>
<g>
</g>
<g>
</g>
<g>
</g>
<g>
</g>
<g>
</g>
<g>
</g>
<g>
</g>
<g>
</g>
<g>
</g>
<g>
</g>
</svg>
